<svg width="16" height="16" viewBox="0 0 16 16" fill="none" xmlns="http://www.w3.org/2000/svg">
<path d="M8 14.6668C11.6819 14.6668 14.6667 11.6821 14.6667 8.00016C14.6667 4.31826 11.6819 1.3335 8 1.3335C4.3181 1.3335 1.33334 4.31826 1.33334 8.00016C1.33334 11.6821 4.3181 14.6668 8 14.6668Z" stroke="#858E8A" stroke-linecap="round" stroke-linejoin="round"/>
<path d="M9.88667 9.88683C9.51361 10.2595 9.03845 10.5132 8.52125 10.6158C8.00405 10.7185 7.46802 10.6655 6.98093 10.4636C6.49383 10.2616 6.07753 9.91984 5.78464 9.48138C5.49176 9.04291 5.33543 8.52745 5.33543 8.00016C5.33543 7.47287 5.49176 6.95742 5.78464 6.51895C6.07753 6.08049 6.49383 5.73869 6.98093 5.53677C7.46802 5.33485 8.00405 5.28187 8.52125 5.38452C9.03845 5.48717 9.51361 5.74085 9.88667 6.1135" stroke="#858E8A" stroke-linecap="round" stroke-linejoin="round"/>
</svg>
