<svg width="1916" height="48" viewBox="0 0 1916 48" fill="none" xmlns="http://www.w3.org/2000/svg">
<g opacity="0.2" clip-path="url(#clip0_2004_87)">
<rect x="1916" y="48" width="8" height="8" transform="rotate(-180 1916 48)" fill="#A891EB"/>
<rect x="1896" y="48" width="8" height="8" transform="rotate(-180 1896 48)" fill="#A891EB"/>
<rect x="1876" y="48" width="8" height="8" transform="rotate(-180 1876 48)" fill="#A891EB"/>
<rect x="1856" y="48" width="8" height="8" transform="rotate(-180 1856 48)" fill="#A891EB"/>
<rect x="1836" y="48" width="8" height="8" transform="rotate(-180 1836 48)" fill="#A891EB"/>
<rect x="1816" y="48" width="8" height="8" transform="rotate(-180 1816 48)" fill="#A891EB"/>
<rect x="1796" y="48" width="8" height="8" transform="rotate(-180 1796 48)" fill="#A891EB"/>
<rect x="1776" y="48" width="8" height="8" transform="rotate(-180 1776 48)" fill="#A891EB"/>
<rect x="1756" y="48" width="8" height="8" transform="rotate(-180 1756 48)" fill="#A891EB"/>
<rect x="1736" y="48" width="8" height="8" transform="rotate(-180 1736 48)" fill="#A891EB"/>
<rect x="1716" y="48" width="8" height="8" transform="rotate(-180 1716 48)" fill="#A891EB"/>
<rect x="1696" y="48" width="8" height="8" transform="rotate(-180 1696 48)" fill="#A891EB"/>
<rect x="1676" y="48" width="8" height="8" transform="rotate(-180 1676 48)" fill="#A891EB"/>
<rect x="1656" y="48" width="8" height="8" transform="rotate(-180 1656 48)" fill="#A891EB"/>
<rect x="1636" y="48" width="8" height="8" transform="rotate(-180 1636 48)" fill="#A891EB"/>
<rect x="1616" y="48" width="8" height="8" transform="rotate(-180 1616 48)" fill="#A891EB"/>
<rect x="1596" y="48" width="8" height="8" transform="rotate(-180 1596 48)" fill="#A891EB"/>
<rect x="1576" y="48" width="8" height="8" transform="rotate(-180 1576 48)" fill="#A891EB"/>
<rect x="1556" y="48" width="8" height="8" transform="rotate(-180 1556 48)" fill="#A891EB"/>
<rect x="1536" y="48" width="8" height="8" transform="rotate(-180 1536 48)" fill="#A891EB"/>
<rect x="1516" y="48" width="8" height="8" transform="rotate(-180 1516 48)" fill="#A891EB"/>
<rect x="1496" y="48" width="8" height="8" transform="rotate(-180 1496 48)" fill="#A891EB"/>
<rect x="1476" y="48" width="8" height="8" transform="rotate(-180 1476 48)" fill="#A891EB"/>
<rect x="1456" y="48" width="8" height="8" transform="rotate(-180 1456 48)" fill="#A891EB"/>
<rect x="1436" y="48" width="8" height="8" transform="rotate(-180 1436 48)" fill="#A891EB"/>
<rect x="1416" y="48" width="8" height="8" transform="rotate(-180 1416 48)" fill="#A891EB"/>
<rect x="1396" y="48" width="8" height="8" transform="rotate(-180 1396 48)" fill="#A891EB"/>
<rect x="1376" y="48" width="8" height="8" transform="rotate(-180 1376 48)" fill="#A891EB"/>
<rect x="1356" y="48" width="8" height="8" transform="rotate(-180 1356 48)" fill="#A891EB"/>
<rect x="1336" y="48" width="8" height="8" transform="rotate(-180 1336 48)" fill="#A891EB"/>
<rect x="1316" y="48" width="8" height="8" transform="rotate(-180 1316 48)" fill="#A891EB"/>
<rect x="1296" y="48" width="8" height="8" transform="rotate(-180 1296 48)" fill="#A891EB"/>
<rect x="1276" y="48" width="8" height="8" transform="rotate(-180 1276 48)" fill="#A891EB"/>
<rect x="1256" y="48" width="8" height="8" transform="rotate(-180 1256 48)" fill="#A891EB"/>
<rect x="1236" y="48" width="8" height="8" transform="rotate(-180 1236 48)" fill="#A891EB"/>
<rect x="1216" y="48" width="8" height="8" transform="rotate(-180 1216 48)" fill="#A891EB"/>
<rect x="1196" y="48" width="8" height="8" transform="rotate(-180 1196 48)" fill="#A891EB"/>
<rect x="1176" y="48" width="8" height="8" transform="rotate(-180 1176 48)" fill="#A891EB"/>
<rect x="1156" y="48" width="8" height="8" transform="rotate(-180 1156 48)" fill="#A891EB"/>
<rect x="1136" y="48" width="8" height="8" transform="rotate(-180 1136 48)" fill="#A891EB"/>
<rect x="1116" y="48" width="8" height="8" transform="rotate(-180 1116 48)" fill="#A891EB"/>
<rect x="1096" y="48" width="8" height="8" transform="rotate(-180 1096 48)" fill="#A891EB"/>
<rect x="1076" y="48" width="8" height="8" transform="rotate(-180 1076 48)" fill="#A891EB"/>
<rect x="1056" y="48" width="8" height="8" transform="rotate(-180 1056 48)" fill="#A891EB"/>
<rect x="1036" y="48" width="8" height="8" transform="rotate(-180 1036 48)" fill="#A891EB"/>
<rect x="1016" y="48" width="8" height="8" transform="rotate(-180 1016 48)" fill="#A891EB"/>
<rect x="996" y="48" width="8" height="8" transform="rotate(-180 996 48)" fill="#A891EB"/>
<rect x="976" y="48" width="8" height="8" transform="rotate(-180 976 48)" fill="#A891EB"/>
<rect x="956" y="48" width="8" height="8" transform="rotate(-180 956 48)" fill="#A891EB"/>
<rect x="936" y="48" width="8" height="8" transform="rotate(-180 936 48)" fill="#A891EB"/>
<rect x="916" y="48" width="8" height="8" transform="rotate(-180 916 48)" fill="#A891EB"/>
<rect x="896" y="48" width="8" height="8" transform="rotate(-180 896 48)" fill="#A891EB"/>
<rect x="876" y="48" width="8" height="8" transform="rotate(-180 876 48)" fill="#A891EB"/>
<rect x="856" y="48" width="8" height="8" transform="rotate(-180 856 48)" fill="#A891EB"/>
<rect x="836" y="48" width="8" height="8" transform="rotate(-180 836 48)" fill="#A891EB"/>
<rect x="816" y="48" width="8" height="8" transform="rotate(-180 816 48)" fill="#A891EB"/>
<rect x="796" y="48" width="8" height="8" transform="rotate(-180 796 48)" fill="#A891EB"/>
<rect x="776" y="48" width="8" height="8" transform="rotate(-180 776 48)" fill="#A891EB"/>
<rect x="756" y="48" width="8" height="8" transform="rotate(-180 756 48)" fill="#A891EB"/>
<rect x="736" y="48" width="8" height="8" transform="rotate(-180 736 48)" fill="#A891EB"/>
<rect x="716" y="48" width="8" height="8" transform="rotate(-180 716 48)" fill="#A891EB"/>
<rect x="696" y="48" width="8" height="8" transform="rotate(-180 696 48)" fill="#A891EB"/>
<rect x="676" y="48" width="8" height="8" transform="rotate(-180 676 48)" fill="#A891EB"/>
<rect x="656" y="48" width="8" height="8" transform="rotate(-180 656 48)" fill="#A891EB"/>
<rect x="636" y="48" width="8" height="8" transform="rotate(-180 636 48)" fill="#A891EB"/>
<rect x="616" y="48" width="8" height="8" transform="rotate(-180 616 48)" fill="#A891EB"/>
<rect x="596" y="48" width="8" height="8" transform="rotate(-180 596 48)" fill="#A891EB"/>
<rect x="576" y="48" width="8" height="8" transform="rotate(-180 576 48)" fill="#A891EB"/>
<rect x="556" y="48" width="8" height="8" transform="rotate(-180 556 48)" fill="#A891EB"/>
<rect x="536" y="48" width="8" height="8" transform="rotate(-180 536 48)" fill="#A891EB"/>
<rect x="516" y="47.9998" width="8" height="8" transform="rotate(-180 516 47.9998)" fill="#A891EB"/>
<rect x="496" y="47.9998" width="8" height="8" transform="rotate(-180 496 47.9998)" fill="#A891EB"/>
<rect x="476" y="47.9998" width="8" height="8" transform="rotate(-180 476 47.9998)" fill="#A891EB"/>
<rect x="456" y="47.9998" width="8" height="8" transform="rotate(-180 456 47.9998)" fill="#A891EB"/>
<rect x="436" y="47.9998" width="8" height="8" transform="rotate(-180 436 47.9998)" fill="#A891EB"/>
<rect x="416" y="47.9998" width="8" height="8" transform="rotate(-180 416 47.9998)" fill="#A891EB"/>
<rect x="396" y="47.9998" width="8" height="8" transform="rotate(-180 396 47.9998)" fill="#A891EB"/>
<rect x="376" y="47.9998" width="8" height="8" transform="rotate(-180 376 47.9998)" fill="#A891EB"/>
<rect x="356" y="47.9998" width="8" height="8" transform="rotate(-180 356 47.9998)" fill="#A891EB"/>
<rect x="336" y="47.9998" width="8" height="8" transform="rotate(-180 336 47.9998)" fill="#A891EB"/>
<rect x="316" y="47.9998" width="8" height="8" transform="rotate(-180 316 47.9998)" fill="#A891EB"/>
<rect x="296" y="47.9998" width="8" height="8" transform="rotate(-180 296 47.9998)" fill="#A891EB"/>
<rect x="276" y="47.9998" width="8" height="8" transform="rotate(-180 276 47.9998)" fill="#A891EB"/>
<rect x="256" y="47.9998" width="8" height="8" transform="rotate(-180 256 47.9998)" fill="#A891EB"/>
<rect x="236" y="47.9998" width="8" height="8" transform="rotate(-180 236 47.9998)" fill="#A891EB"/>
<rect x="216" y="47.9998" width="8" height="8" transform="rotate(-180 216 47.9998)" fill="#A891EB"/>
<rect x="196" y="47.9998" width="8" height="8" transform="rotate(-180 196 47.9998)" fill="#A891EB"/>
<rect x="176" y="47.9998" width="8" height="8" transform="rotate(-180 176 47.9998)" fill="#A891EB"/>
<rect x="156" y="47.9998" width="8" height="8" transform="rotate(-180 156 47.9998)" fill="#A891EB"/>
<rect x="136" y="47.9998" width="8" height="8" transform="rotate(-180 136 47.9998)" fill="#A891EB"/>
<rect x="116" y="47.9998" width="8" height="8" transform="rotate(-180 116 47.9998)" fill="#A891EB"/>
<rect x="96" y="47.9998" width="8" height="8" transform="rotate(-180 96 47.9998)" fill="#A891EB"/>
<rect x="76" y="47.9998" width="8" height="8" transform="rotate(-180 76 47.9998)" fill="#A891EB"/>
<rect x="56" y="47.9998" width="8" height="8" transform="rotate(-180 56 47.9998)" fill="#A891EB"/>
<rect x="36" y="47.9998" width="8" height="8" transform="rotate(-180 36 47.9998)" fill="#A891EB"/>
<rect x="16" y="47.9998" width="8" height="8" transform="rotate(-180 16 47.9998)" fill="#A891EB"/>
<rect x="1916" y="28" width="8" height="8" transform="rotate(-180 1916 28)" fill="#A891EB"/>
<rect x="1896" y="28" width="8" height="8" transform="rotate(-180 1896 28)" fill="#A891EB"/>
<rect x="1876" y="28" width="8" height="8" transform="rotate(-180 1876 28)" fill="#A891EB"/>
<rect x="1856" y="28" width="8" height="8" transform="rotate(-180 1856 28)" fill="#A891EB"/>
<rect x="1836" y="28" width="8" height="8" transform="rotate(-180 1836 28)" fill="#A891EB"/>
<rect x="1816" y="28" width="8" height="8" transform="rotate(-180 1816 28)" fill="#A891EB"/>
<rect x="1796" y="28" width="8" height="8" transform="rotate(-180 1796 28)" fill="#A891EB"/>
<rect x="1776" y="28" width="8" height="8" transform="rotate(-180 1776 28)" fill="#A891EB"/>
<rect x="1756" y="28" width="8" height="8" transform="rotate(-180 1756 28)" fill="#A891EB"/>
<rect x="1736" y="28" width="8" height="8" transform="rotate(-180 1736 28)" fill="#A891EB"/>
<rect x="1716" y="28" width="8" height="8" transform="rotate(-180 1716 28)" fill="#A891EB"/>
<rect x="1696" y="28" width="8" height="8" transform="rotate(-180 1696 28)" fill="#A891EB"/>
<rect x="1676" y="28" width="8" height="8" transform="rotate(-180 1676 28)" fill="#A891EB"/>
<rect x="1656" y="28" width="8" height="8" transform="rotate(-180 1656 28)" fill="#A891EB"/>
<rect x="1636" y="28" width="8" height="8" transform="rotate(-180 1636 28)" fill="#A891EB"/>
<rect x="1616" y="28" width="8" height="8" transform="rotate(-180 1616 28)" fill="#A891EB"/>
<rect x="1596" y="28" width="8" height="8" transform="rotate(-180 1596 28)" fill="#A891EB"/>
<rect x="1576" y="28" width="8" height="8" transform="rotate(-180 1576 28)" fill="#A891EB"/>
<rect x="1556" y="28" width="8" height="8" transform="rotate(-180 1556 28)" fill="#A891EB"/>
<rect x="1536" y="28" width="8" height="8" transform="rotate(-180 1536 28)" fill="#A891EB"/>
<rect x="1516" y="28" width="8" height="8" transform="rotate(-180 1516 28)" fill="#A891EB"/>
<rect x="1496" y="28" width="8" height="8" transform="rotate(-180 1496 28)" fill="#A891EB"/>
<rect x="1476" y="28" width="8" height="8" transform="rotate(-180 1476 28)" fill="#A891EB"/>
<rect x="1456" y="28" width="8" height="8" transform="rotate(-180 1456 28)" fill="#A891EB"/>
<rect x="1436" y="28" width="8" height="8" transform="rotate(-180 1436 28)" fill="#A891EB"/>
<rect x="1416" y="28" width="8" height="8" transform="rotate(-180 1416 28)" fill="#A891EB"/>
<rect x="1396" y="28" width="8" height="8" transform="rotate(-180 1396 28)" fill="#A891EB"/>
<rect x="1376" y="28" width="8" height="8" transform="rotate(-180 1376 28)" fill="#A891EB"/>
<rect x="1356" y="28" width="8" height="8" transform="rotate(-180 1356 28)" fill="#A891EB"/>
<rect x="1336" y="28" width="8" height="8" transform="rotate(-180 1336 28)" fill="#A891EB"/>
<rect x="1316" y="28" width="8" height="8" transform="rotate(-180 1316 28)" fill="#A891EB"/>
<rect x="1296" y="28" width="8" height="8" transform="rotate(-180 1296 28)" fill="#A891EB"/>
<rect x="1276" y="28" width="8" height="8" transform="rotate(-180 1276 28)" fill="#A891EB"/>
<rect x="1256" y="28" width="8" height="8" transform="rotate(-180 1256 28)" fill="#A891EB"/>
<rect x="1236" y="28" width="8" height="8" transform="rotate(-180 1236 28)" fill="#A891EB"/>
<rect x="1216" y="28" width="8" height="8" transform="rotate(-180 1216 28)" fill="#A891EB"/>
<rect x="1196" y="28" width="8" height="8" transform="rotate(-180 1196 28)" fill="#A891EB"/>
<rect x="1176" y="28" width="8" height="8" transform="rotate(-180 1176 28)" fill="#A891EB"/>
<rect x="1156" y="28" width="8" height="8" transform="rotate(-180 1156 28)" fill="#A891EB"/>
<rect x="1136" y="28" width="8" height="8" transform="rotate(-180 1136 28)" fill="#A891EB"/>
<rect x="1116" y="28" width="8" height="8" transform="rotate(-180 1116 28)" fill="#A891EB"/>
<rect x="1096" y="28" width="8" height="8" transform="rotate(-180 1096 28)" fill="#A891EB"/>
<rect x="1076" y="28" width="8" height="8" transform="rotate(-180 1076 28)" fill="#A891EB"/>
<rect x="1056" y="28" width="8" height="8" transform="rotate(-180 1056 28)" fill="#A891EB"/>
<rect x="1036" y="28" width="8" height="8" transform="rotate(-180 1036 28)" fill="#A891EB"/>
<rect x="1016" y="28" width="8" height="8" transform="rotate(-180 1016 28)" fill="#A891EB"/>
<rect x="996" y="28" width="8" height="8" transform="rotate(-180 996 28)" fill="#A891EB"/>
<rect x="976" y="28" width="8" height="8" transform="rotate(-180 976 28)" fill="#A891EB"/>
<rect x="956" y="28" width="8" height="8" transform="rotate(-180 956 28)" fill="#A891EB"/>
<rect x="936" y="28" width="8" height="8" transform="rotate(-180 936 28)" fill="#A891EB"/>
<rect x="916" y="28" width="8" height="8" transform="rotate(-180 916 28)" fill="#A891EB"/>
<rect x="896" y="28" width="8" height="8" transform="rotate(-180 896 28)" fill="#A891EB"/>
<rect x="876" y="28" width="8" height="8" transform="rotate(-180 876 28)" fill="#A891EB"/>
<rect x="856" y="28" width="8" height="8" transform="rotate(-180 856 28)" fill="#A891EB"/>
<rect x="836" y="28" width="8" height="8" transform="rotate(-180 836 28)" fill="#A891EB"/>
<rect x="816" y="28" width="8" height="8" transform="rotate(-180 816 28)" fill="#A891EB"/>
<rect x="796" y="28" width="8" height="8" transform="rotate(-180 796 28)" fill="#A891EB"/>
<rect x="776" y="28" width="8" height="8" transform="rotate(-180 776 28)" fill="#A891EB"/>
<rect x="756" y="28" width="8" height="8" transform="rotate(-180 756 28)" fill="#A891EB"/>
<rect x="736" y="28" width="8" height="8" transform="rotate(-180 736 28)" fill="#A891EB"/>
<rect x="716" y="28" width="8" height="8" transform="rotate(-180 716 28)" fill="#A891EB"/>
<rect x="696" y="28" width="8" height="8" transform="rotate(-180 696 28)" fill="#A891EB"/>
<rect x="676" y="28" width="8" height="8" transform="rotate(-180 676 28)" fill="#A891EB"/>
<rect x="656" y="28" width="8" height="8" transform="rotate(-180 656 28)" fill="#A891EB"/>
<rect x="636" y="28" width="8" height="8" transform="rotate(-180 636 28)" fill="#A891EB"/>
<rect x="616" y="28" width="8" height="8" transform="rotate(-180 616 28)" fill="#A891EB"/>
<rect x="596" y="28" width="8" height="8" transform="rotate(-180 596 28)" fill="#A891EB"/>
<rect x="576" y="28" width="8" height="8" transform="rotate(-180 576 28)" fill="#A891EB"/>
<rect x="556" y="28" width="8" height="8" transform="rotate(-180 556 28)" fill="#A891EB"/>
<rect x="536" y="28" width="8" height="8" transform="rotate(-180 536 28)" fill="#A891EB"/>
<rect x="516" y="27.9998" width="8" height="8" transform="rotate(-180 516 27.9998)" fill="#A891EB"/>
<rect x="496" y="27.9998" width="8" height="8" transform="rotate(-180 496 27.9998)" fill="#A891EB"/>
<rect x="476" y="27.9998" width="8" height="8" transform="rotate(-180 476 27.9998)" fill="#A891EB"/>
<rect x="456" y="27.9998" width="8" height="8" transform="rotate(-180 456 27.9998)" fill="#A891EB"/>
<rect x="436" y="27.9998" width="8" height="8" transform="rotate(-180 436 27.9998)" fill="#A891EB"/>
<rect x="416" y="27.9998" width="8" height="8" transform="rotate(-180 416 27.9998)" fill="#A891EB"/>
<rect x="396" y="27.9998" width="8" height="8" transform="rotate(-180 396 27.9998)" fill="#A891EB"/>
<rect x="376" y="27.9998" width="8" height="8" transform="rotate(-180 376 27.9998)" fill="#A891EB"/>
<rect x="356" y="27.9998" width="8" height="8" transform="rotate(-180 356 27.9998)" fill="#A891EB"/>
<rect x="336" y="27.9998" width="8" height="8" transform="rotate(-180 336 27.9998)" fill="#A891EB"/>
<rect x="316" y="27.9998" width="8" height="8" transform="rotate(-180 316 27.9998)" fill="#A891EB"/>
<rect x="296" y="27.9998" width="8" height="8" transform="rotate(-180 296 27.9998)" fill="#A891EB"/>
<rect x="276" y="27.9998" width="8" height="8" transform="rotate(-180 276 27.9998)" fill="#A891EB"/>
<rect x="256" y="27.9998" width="8" height="8" transform="rotate(-180 256 27.9998)" fill="#A891EB"/>
<rect x="236" y="27.9998" width="8" height="8" transform="rotate(-180 236 27.9998)" fill="#A891EB"/>
<rect x="216" y="27.9998" width="8" height="8" transform="rotate(-180 216 27.9998)" fill="#A891EB"/>
<rect x="196" y="27.9998" width="8" height="8" transform="rotate(-180 196 27.9998)" fill="#A891EB"/>
<rect x="176" y="27.9998" width="8" height="8" transform="rotate(-180 176 27.9998)" fill="#A891EB"/>
<rect x="156" y="27.9998" width="8" height="8" transform="rotate(-180 156 27.9998)" fill="#A891EB"/>
<rect x="136" y="27.9998" width="8" height="8" transform="rotate(-180 136 27.9998)" fill="#A891EB"/>
<rect x="116" y="27.9998" width="8" height="8" transform="rotate(-180 116 27.9998)" fill="#A891EB"/>
<rect x="96" y="27.9998" width="8" height="8" transform="rotate(-180 96 27.9998)" fill="#A891EB"/>
<rect x="76" y="27.9998" width="8" height="8" transform="rotate(-180 76 27.9998)" fill="#A891EB"/>
<rect x="56" y="27.9998" width="8" height="8" transform="rotate(-180 56 27.9998)" fill="#A891EB"/>
<rect x="36" y="27.9998" width="8" height="8" transform="rotate(-180 36 27.9998)" fill="#A891EB"/>
<rect x="16" y="27.9998" width="8" height="8" transform="rotate(-180 16 27.9998)" fill="#A891EB"/>
<rect x="1916" y="8" width="8" height="8" transform="rotate(-180 1916 8)" fill="#A891EB"/>
<rect x="1896" y="8" width="8" height="8" transform="rotate(-180 1896 8)" fill="#A891EB"/>
<rect x="1876" y="8" width="8" height="8" transform="rotate(-180 1876 8)" fill="#A891EB"/>
<rect x="1856" y="8" width="8" height="8" transform="rotate(-180 1856 8)" fill="#A891EB"/>
<rect x="1836" y="8" width="8" height="8" transform="rotate(-180 1836 8)" fill="#A891EB"/>
<rect x="1816" y="8" width="8" height="8" transform="rotate(-180 1816 8)" fill="#A891EB"/>
<rect x="1796" y="8" width="8" height="8" transform="rotate(-180 1796 8)" fill="#A891EB"/>
<rect x="1776" y="8" width="8" height="8" transform="rotate(-180 1776 8)" fill="#A891EB"/>
<rect x="1756" y="8" width="8" height="8" transform="rotate(-180 1756 8)" fill="#A891EB"/>
<rect x="1736" y="8" width="8" height="8" transform="rotate(-180 1736 8)" fill="#A891EB"/>
<rect x="1716" y="8" width="8" height="8" transform="rotate(-180 1716 8)" fill="#A891EB"/>
<rect x="1696" y="8" width="8" height="8" transform="rotate(-180 1696 8)" fill="#A891EB"/>
<rect x="1676" y="8" width="8" height="8" transform="rotate(-180 1676 8)" fill="#A891EB"/>
<rect x="1656" y="8" width="8" height="8" transform="rotate(-180 1656 8)" fill="#A891EB"/>
<rect x="1636" y="8" width="8" height="8" transform="rotate(-180 1636 8)" fill="#A891EB"/>
<rect x="1616" y="8" width="8" height="8" transform="rotate(-180 1616 8)" fill="#A891EB"/>
<rect x="1596" y="8" width="8" height="8" transform="rotate(-180 1596 8)" fill="#A891EB"/>
<rect x="1576" y="8" width="8" height="8" transform="rotate(-180 1576 8)" fill="#A891EB"/>
<rect x="1556" y="8" width="8" height="8" transform="rotate(-180 1556 8)" fill="#A891EB"/>
<rect x="1536" y="8" width="8" height="8" transform="rotate(-180 1536 8)" fill="#A891EB"/>
<rect x="1516" y="8" width="8" height="8" transform="rotate(-180 1516 8)" fill="#A891EB"/>
<rect x="1496" y="8" width="8" height="8" transform="rotate(-180 1496 8)" fill="#A891EB"/>
<rect x="1476" y="8" width="8" height="8" transform="rotate(-180 1476 8)" fill="#A891EB"/>
<rect x="1456" y="8" width="8" height="8" transform="rotate(-180 1456 8)" fill="#A891EB"/>
<rect x="1436" y="8" width="8" height="8" transform="rotate(-180 1436 8)" fill="#A891EB"/>
<rect x="1416" y="8" width="8" height="8" transform="rotate(-180 1416 8)" fill="#A891EB"/>
<rect x="1396" y="8" width="8" height="8" transform="rotate(-180 1396 8)" fill="#A891EB"/>
<rect x="1376" y="8" width="8" height="8" transform="rotate(-180 1376 8)" fill="#A891EB"/>
<rect x="1356" y="8" width="8" height="8" transform="rotate(-180 1356 8)" fill="#A891EB"/>
<rect x="1336" y="8" width="8" height="8" transform="rotate(-180 1336 8)" fill="#A891EB"/>
<rect x="1316" y="8" width="8" height="8" transform="rotate(-180 1316 8)" fill="#A891EB"/>
<rect x="1296" y="8" width="8" height="8" transform="rotate(-180 1296 8)" fill="#A891EB"/>
<rect x="1276" y="8" width="8" height="8" transform="rotate(-180 1276 8)" fill="#A891EB"/>
<rect x="1256" y="8" width="8" height="8" transform="rotate(-180 1256 8)" fill="#A891EB"/>
<rect x="1236" y="8" width="8" height="8" transform="rotate(-180 1236 8)" fill="#A891EB"/>
<rect x="1216" y="8" width="8" height="8" transform="rotate(-180 1216 8)" fill="#A891EB"/>
<rect x="1196" y="8" width="8" height="8" transform="rotate(-180 1196 8)" fill="#A891EB"/>
<rect x="1176" y="8" width="8" height="8" transform="rotate(-180 1176 8)" fill="#A891EB"/>
<rect x="1156" y="8" width="8" height="8" transform="rotate(-180 1156 8)" fill="#A891EB"/>
<rect x="1136" y="8" width="8" height="8" transform="rotate(-180 1136 8)" fill="#A891EB"/>
<rect x="1116" y="8" width="8" height="8" transform="rotate(-180 1116 8)" fill="#A891EB"/>
<rect x="1096" y="8" width="8" height="8" transform="rotate(-180 1096 8)" fill="#A891EB"/>
<rect x="1076" y="8" width="8" height="8" transform="rotate(-180 1076 8)" fill="#A891EB"/>
<rect x="1056" y="8" width="8" height="8" transform="rotate(-180 1056 8)" fill="#A891EB"/>
<rect x="1036" y="8" width="8" height="8" transform="rotate(-180 1036 8)" fill="#A891EB"/>
<rect x="1016" y="8" width="8" height="8" transform="rotate(-180 1016 8)" fill="#A891EB"/>
<rect x="996" y="8" width="8" height="8" transform="rotate(-180 996 8)" fill="#A891EB"/>
<rect x="976" y="8" width="8" height="8" transform="rotate(-180 976 8)" fill="#A891EB"/>
<rect x="956" y="8" width="8" height="8" transform="rotate(-180 956 8)" fill="#A891EB"/>
<rect x="936" y="8" width="8" height="8" transform="rotate(-180 936 8)" fill="#A891EB"/>
<rect x="916" y="8" width="8" height="8" transform="rotate(-180 916 8)" fill="#A891EB"/>
<rect x="896" y="8" width="8" height="8" transform="rotate(-180 896 8)" fill="#A891EB"/>
<rect x="876" y="8" width="8" height="8" transform="rotate(-180 876 8)" fill="#A891EB"/>
<rect x="856" y="8" width="8" height="8" transform="rotate(-180 856 8)" fill="#A891EB"/>
<rect x="836" y="8" width="8" height="8" transform="rotate(-180 836 8)" fill="#A891EB"/>
<rect x="816" y="8" width="8" height="8" transform="rotate(-180 816 8)" fill="#A891EB"/>
<rect x="796" y="8" width="8" height="8" transform="rotate(-180 796 8)" fill="#A891EB"/>
<rect x="776" y="8" width="8" height="8" transform="rotate(-180 776 8)" fill="#A891EB"/>
<rect x="756" y="8" width="8" height="8" transform="rotate(-180 756 8)" fill="#A891EB"/>
<rect x="736" y="8" width="8" height="8" transform="rotate(-180 736 8)" fill="#A891EB"/>
<rect x="716" y="8" width="8" height="8" transform="rotate(-180 716 8)" fill="#A891EB"/>
<rect x="696" y="8" width="8" height="8" transform="rotate(-180 696 8)" fill="#A891EB"/>
<rect x="676" y="8" width="8" height="8" transform="rotate(-180 676 8)" fill="#A891EB"/>
<rect x="656" y="8" width="8" height="8" transform="rotate(-180 656 8)" fill="#A891EB"/>
<rect x="636" y="8" width="8" height="8" transform="rotate(-180 636 8)" fill="#A891EB"/>
<rect x="616" y="8" width="8" height="8" transform="rotate(-180 616 8)" fill="#A891EB"/>
<rect x="596" y="8" width="8" height="8" transform="rotate(-180 596 8)" fill="#A891EB"/>
<rect x="576" y="8" width="8" height="8" transform="rotate(-180 576 8)" fill="#A891EB"/>
<rect x="556" y="8" width="8" height="8" transform="rotate(-180 556 8)" fill="#A891EB"/>
<rect x="536" y="8" width="8" height="8" transform="rotate(-180 536 8)" fill="#A891EB"/>
<rect x="516" y="7.99976" width="8" height="8" transform="rotate(-180 516 7.99976)" fill="#A891EB"/>
<rect x="496" y="7.99976" width="8" height="8" transform="rotate(-180 496 7.99976)" fill="#A891EB"/>
<rect x="476" y="7.99976" width="8" height="8" transform="rotate(-180 476 7.99976)" fill="#A891EB"/>
<rect x="456" y="7.99976" width="8" height="8" transform="rotate(-180 456 7.99976)" fill="#A891EB"/>
<rect x="436" y="7.99976" width="8" height="8" transform="rotate(-180 436 7.99976)" fill="#A891EB"/>
<rect x="416" y="7.99976" width="8" height="8" transform="rotate(-180 416 7.99976)" fill="#A891EB"/>
<rect x="396" y="7.99976" width="8" height="8" transform="rotate(-180 396 7.99976)" fill="#A891EB"/>
<rect x="376" y="7.99976" width="8" height="8" transform="rotate(-180 376 7.99976)" fill="#A891EB"/>
<rect x="356" y="7.99976" width="8" height="8" transform="rotate(-180 356 7.99976)" fill="#A891EB"/>
<rect x="336" y="7.99976" width="8" height="8" transform="rotate(-180 336 7.99976)" fill="#A891EB"/>
<rect x="316" y="7.99976" width="8" height="8" transform="rotate(-180 316 7.99976)" fill="#A891EB"/>
<rect x="296" y="7.99976" width="8" height="8" transform="rotate(-180 296 7.99976)" fill="#A891EB"/>
<rect x="276" y="7.99976" width="8" height="8" transform="rotate(-180 276 7.99976)" fill="#A891EB"/>
<rect x="256" y="7.99976" width="8" height="8" transform="rotate(-180 256 7.99976)" fill="#A891EB"/>
<rect x="236" y="7.99976" width="8" height="8" transform="rotate(-180 236 7.99976)" fill="#A891EB"/>
<rect x="216" y="7.99976" width="8" height="8" transform="rotate(-180 216 7.99976)" fill="#A891EB"/>
<rect x="196" y="7.99976" width="8" height="8" transform="rotate(-180 196 7.99976)" fill="#A891EB"/>
<rect x="176" y="7.99976" width="8" height="8" transform="rotate(-180 176 7.99976)" fill="#A891EB"/>
<rect x="156" y="7.99976" width="8" height="8" transform="rotate(-180 156 7.99976)" fill="#A891EB"/>
<rect x="136" y="7.99976" width="8" height="8" transform="rotate(-180 136 7.99976)" fill="#A891EB"/>
<rect x="116" y="7.99976" width="8" height="8" transform="rotate(-180 116 7.99976)" fill="#A891EB"/>
<rect x="96" y="7.99976" width="8" height="8" transform="rotate(-180 96 7.99976)" fill="#A891EB"/>
<rect x="76" y="7.99976" width="8" height="8" transform="rotate(-180 76 7.99976)" fill="#A891EB"/>
<rect x="56" y="7.99976" width="8" height="8" transform="rotate(-180 56 7.99976)" fill="#A891EB"/>
<rect x="36" y="7.99976" width="8" height="8" transform="rotate(-180 36 7.99976)" fill="#A891EB"/>
<rect x="16" y="7.99976" width="8" height="8" transform="rotate(-180 16 7.99976)" fill="#A891EB"/>
</g>
<defs>
<clipPath id="clip0_2004_87">
<rect width="1916" height="47.9998" fill="white" transform="translate(1916 48) rotate(-180)"/>
</clipPath>
</defs>
</svg>
