<svg width="516" height="48" viewBox="0 0 516 48" fill="none" xmlns="http://www.w3.org/2000/svg">
<g clip-path="url(#clip0_2010_1923)">
<g opacity="0.2" clip-path="url(#clip1_2010_1923)">
<rect x="504" y="48" width="8" height="8" transform="rotate(-180 504 48)" fill="#A891EB"/>
<rect x="484" y="48" width="8" height="8" transform="rotate(-180 484 48)" fill="#A891EB"/>
<rect x="464" y="48" width="8" height="8" transform="rotate(-180 464 48)" fill="#A891EB"/>
<rect x="444" y="48" width="8" height="8" transform="rotate(-180 444 48)" fill="#A891EB"/>
<rect x="424" y="48" width="8" height="8" transform="rotate(-180 424 48)" fill="#A891EB"/>
<rect x="404" y="48" width="8" height="8" transform="rotate(-180 404 48)" fill="#A891EB"/>
<rect x="384" y="48" width="8" height="8" transform="rotate(-180 384 48)" fill="#A891EB"/>
<rect x="364" y="48" width="8" height="8" transform="rotate(-180 364 48)" fill="#A891EB"/>
<rect x="344" y="48" width="8" height="8" transform="rotate(-180 344 48)" fill="#A891EB"/>
<rect x="324" y="48" width="8" height="8" transform="rotate(-180 324 48)" fill="#A891EB"/>
<rect x="304" y="48" width="8" height="8" transform="rotate(-180 304 48)" fill="#A891EB"/>
<rect x="284" y="48" width="8" height="8" transform="rotate(-180 284 48)" fill="#A891EB"/>
<rect x="264" y="48" width="8" height="8" transform="rotate(-180 264 48)" fill="#A891EB"/>
<rect x="244" y="48" width="8" height="8" transform="rotate(-180 244 48)" fill="#A891EB"/>
<rect x="224" y="48" width="8" height="8" transform="rotate(-180 224 48)" fill="#A891EB"/>
<rect x="204" y="48" width="8" height="8" transform="rotate(-180 204 48)" fill="#A891EB"/>
<rect x="184" y="48" width="8" height="8" transform="rotate(-180 184 48)" fill="#A891EB"/>
<rect x="164" y="48" width="8" height="8" transform="rotate(-180 164 48)" fill="#A891EB"/>
<rect x="144" y="48" width="8" height="8" transform="rotate(-180 144 48)" fill="#A891EB"/>
<rect x="124" y="48" width="8" height="8" transform="rotate(-180 124 48)" fill="#A891EB"/>
<rect x="104" y="48" width="8" height="8" transform="rotate(-180 104 48)" fill="#A891EB"/>
<rect x="84" y="48" width="8" height="8" transform="rotate(-180 84 48)" fill="#A891EB"/>
<rect x="64" y="48" width="8" height="8" transform="rotate(-180 64 48)" fill="#A891EB"/>
<rect x="44" y="48" width="8" height="8" transform="rotate(-180 44 48)" fill="#A891EB"/>
<rect x="24" y="48" width="8" height="8" transform="rotate(-180 24 48)" fill="#A891EB"/>
<rect x="4" y="48" width="8" height="8" transform="rotate(-180 4 48)" fill="#A891EB"/>
<rect x="504" y="28" width="8" height="8" transform="rotate(-180 504 28)" fill="#A891EB"/>
<rect x="484" y="28" width="8" height="8" transform="rotate(-180 484 28)" fill="#A891EB"/>
<rect x="464" y="28" width="8" height="8" transform="rotate(-180 464 28)" fill="#A891EB"/>
<rect x="444" y="28" width="8" height="8" transform="rotate(-180 444 28)" fill="#A891EB"/>
<rect x="424" y="28" width="8" height="8" transform="rotate(-180 424 28)" fill="#A891EB"/>
<rect x="404" y="28" width="8" height="8" transform="rotate(-180 404 28)" fill="#A891EB"/>
<rect x="384" y="28" width="8" height="8" transform="rotate(-180 384 28)" fill="#A891EB"/>
<rect x="364" y="28" width="8" height="8" transform="rotate(-180 364 28)" fill="#A891EB"/>
<rect x="344" y="28" width="8" height="8" transform="rotate(-180 344 28)" fill="#A891EB"/>
<rect x="324" y="28" width="8" height="8" transform="rotate(-180 324 28)" fill="#A891EB"/>
<rect x="304" y="28" width="8" height="8" transform="rotate(-180 304 28)" fill="#A891EB"/>
<rect x="284" y="28" width="8" height="8" transform="rotate(-180 284 28)" fill="#A891EB"/>
<rect x="264" y="28" width="8" height="8" transform="rotate(-180 264 28)" fill="#A891EB"/>
<rect x="244" y="28" width="8" height="8" transform="rotate(-180 244 28)" fill="#A891EB"/>
<rect x="224" y="28" width="8" height="8" transform="rotate(-180 224 28)" fill="#A891EB"/>
<rect x="204" y="28" width="8" height="8" transform="rotate(-180 204 28)" fill="#A891EB"/>
<rect x="184" y="28" width="8" height="8" transform="rotate(-180 184 28)" fill="#A891EB"/>
<rect x="164" y="28" width="8" height="8" transform="rotate(-180 164 28)" fill="#A891EB"/>
<rect x="144" y="28" width="8" height="8" transform="rotate(-180 144 28)" fill="#A891EB"/>
<rect x="124" y="28" width="8" height="8" transform="rotate(-180 124 28)" fill="#A891EB"/>
<rect x="104" y="28" width="8" height="8" transform="rotate(-180 104 28)" fill="#A891EB"/>
<rect x="84" y="28" width="8" height="8" transform="rotate(-180 84 28)" fill="#A891EB"/>
<rect x="64" y="28" width="8" height="8" transform="rotate(-180 64 28)" fill="#A891EB"/>
<rect x="44" y="28" width="8" height="8" transform="rotate(-180 44 28)" fill="#A891EB"/>
<rect x="24" y="28" width="8" height="8" transform="rotate(-180 24 28)" fill="#A891EB"/>
<rect x="4" y="28" width="8" height="8" transform="rotate(-180 4 28)" fill="#A891EB"/>
<rect x="504" y="8" width="8" height="8" transform="rotate(-180 504 8)" fill="#A891EB"/>
<rect x="484" y="8" width="8" height="8" transform="rotate(-180 484 8)" fill="#A891EB"/>
<rect x="464" y="8" width="8" height="8" transform="rotate(-180 464 8)" fill="#A891EB"/>
<rect x="444" y="8" width="8" height="8" transform="rotate(-180 444 8)" fill="#A891EB"/>
<rect x="424" y="8" width="8" height="8" transform="rotate(-180 424 8)" fill="#A891EB"/>
<rect x="404" y="8" width="8" height="8" transform="rotate(-180 404 8)" fill="#A891EB"/>
<rect x="384" y="8" width="8" height="8" transform="rotate(-180 384 8)" fill="#A891EB"/>
<rect x="364" y="8" width="8" height="8" transform="rotate(-180 364 8)" fill="#A891EB"/>
<rect x="344" y="8" width="8" height="8" transform="rotate(-180 344 8)" fill="#A891EB"/>
<rect x="324" y="8" width="8" height="8" transform="rotate(-180 324 8)" fill="#A891EB"/>
<rect x="304" y="8" width="8" height="8" transform="rotate(-180 304 8)" fill="#A891EB"/>
<rect x="284" y="8" width="8" height="8" transform="rotate(-180 284 8)" fill="#A891EB"/>
<rect x="264" y="8" width="8" height="8" transform="rotate(-180 264 8)" fill="#A891EB"/>
<rect x="244" y="8" width="8" height="8" transform="rotate(-180 244 8)" fill="#A891EB"/>
<rect x="224" y="8" width="8" height="8" transform="rotate(-180 224 8)" fill="#A891EB"/>
<rect x="204" y="8" width="8" height="8" transform="rotate(-180 204 8)" fill="#A891EB"/>
<rect x="184" y="8" width="8" height="8" transform="rotate(-180 184 8)" fill="#A891EB"/>
<rect x="164" y="8" width="8" height="8" transform="rotate(-180 164 8)" fill="#A891EB"/>
<rect x="144" y="8" width="8" height="8" transform="rotate(-180 144 8)" fill="#A891EB"/>
<rect x="124" y="8" width="8" height="8" transform="rotate(-180 124 8)" fill="#A891EB"/>
<rect x="104" y="8" width="8" height="8" transform="rotate(-180 104 8)" fill="#A891EB"/>
<rect x="84" y="8" width="8" height="8" transform="rotate(-180 84 8)" fill="#A891EB"/>
<rect x="64" y="8" width="8" height="8" transform="rotate(-180 64 8)" fill="#A891EB"/>
<rect x="44" y="8" width="8" height="8" transform="rotate(-180 44 8)" fill="#A891EB"/>
<rect x="24" y="8" width="8" height="8" transform="rotate(-180 24 8)" fill="#A891EB"/>
<rect x="4" y="8" width="8" height="8" transform="rotate(-180 4 8)" fill="#A891EB"/>
</g>
</g>
<defs>
<clipPath id="clip0_2010_1923">
<rect width="528" height="48" fill="white" transform="translate(-12)"/>
</clipPath>
<clipPath id="clip1_2010_1923">
<rect width="1916" height="47.9998" fill="white" transform="translate(1904 48) rotate(-180)"/>
</clipPath>
</defs>
</svg>
