<svg xmlns="http://www.w3.org/2000/svg">
    <symbol id="versace" viewBox="0 0 167 34" fill="none">
        <path fill-rule="evenodd" clip-rule="evenodd" d="M150.179 0.655656H166.482V3.25336C166.008 3.09436 165.512 3.0124 165.013 3.01061H155.642V15.1491H164.758C165.413 15.1491 165.996 15.0772 166.481 14.9548V17.5411C166.068 17.4443 165.499 17.3952 164.794 17.3952H155.642V29.9466H164.733C165.232 29.9466 165.826 29.874 166.481 29.7159V32.508H150.203C150.333 32.017 150.399 31.511 150.398 31.003V2.19691C150.398 1.56617 150.325 1.04435 150.179 0.655656ZM146.405 8.92219L141.695 8.88659C141.464 6.23976 139.947 3.67765 136.609 3.20567C129.459 2.56211 127.444 10.415 127.626 16.1572C127.809 21.6922 128.694 30.2015 136.075 30.2015C139.171 30.2015 142.144 27.0207 142.047 24.3383L146.405 24.3027C146.089 29.8377 139.741 33.0419 136.718 33.1516C126.389 33.5039 122.066 26.6206 121.848 16.7993C121.654 7.90346 125.296 0 135.504 0C144.244 0.121734 145.931 5.29294 146.405 8.92219ZM72.9408 28.8901L76.0611 26.2803C77.687 28.9635 79.0225 30.1886 82.2517 30.1886C85.5286 30.1886 88.285 28.1982 88.285 24.6786C88.285 22.9423 87.5802 21.522 86.1849 20.4542C85.5528 19.9559 83.951 19.0945 81.4259 17.8928C77.6507 16.0846 73.9731 13.7289 73.9731 8.99551C73.9731 3.02271 79.0467 0.388695 84.3995 0.193636C87.5681 0.0726133 91.5014 1.82174 93.091 3.78728L89.9231 6.22695C89.3581 5.17255 88.5181 4.29083 87.4923 3.6754C86.4665 3.05998 85.2932 2.73381 84.0969 2.73154C80.0541 2.73154 76.8498 7.41724 80.2 10.6464C81.0493 11.4715 82.7863 12.4909 85.4324 13.7047C89.6561 15.6838 93.2612 18.0501 93.2612 23.2825C93.2612 25.0908 92.7878 26.7779 91.853 28.3199C89.9722 31.4273 86.8278 32.9814 82.4339 32.9814C77.3838 32.9814 76.3892 31.8281 72.9408 28.8901ZM28.4893 0.655656H44.7782V3.25336C44.3051 3.09442 43.8094 3.01246 43.3103 3.01061H33.9396V15.1491H43.0554C43.7111 15.1491 44.2941 15.0772 44.7789 14.9548V17.5411C44.366 17.4443 43.7958 17.3952 43.1046 17.3952H33.9396V29.9466H43.0312C43.5289 29.9466 44.124 29.874 44.7789 29.7159V32.508H28.5143C28.6332 32.0151 28.6941 31.5101 28.6958 31.003V2.19691C28.6958 1.56617 28.6225 1.04435 28.4893 0.655656ZM0 0.655656H5.92368V0.947533C5.92368 1.21449 6.0084 1.56617 6.15434 2.01538L14.5049 27.1545L23.0754 1.90574C23.2085 1.48145 23.2818 1.06856 23.2818 0.655656H26.1586C25.8674 1.16537 25.6489 1.61529 25.515 2.01538L15.7308 31.2095C15.6339 31.4886 15.5492 31.9257 15.4766 32.5087H10.6208C10.5474 32.0674 10.4379 31.6329 10.2933 31.2095L0.704065 2.24603C0.482555 1.71187 0.251627 1.18166 0.0113903 0.655656H0ZM62.9145 17.262C66.7986 16.4968 69.7729 13.5232 69.7729 9.27457C69.7729 3.70186 65.1114 0.654944 59.8918 0.654944H50.3509C50.4841 1.14117 50.5574 1.65089 50.5574 2.18481V30.9774C50.5574 31.5968 50.4841 32.1186 50.3509 32.5073H56.0319C55.8929 32.0093 55.8235 31.4944 55.8254 30.9774V17.7476L57.6457 17.9419L67.1631 32.5073H72.8803L62.9145 17.262ZM61.9314 14.8345C60.8998 15.562 59.6611 15.9258 58.2409 15.9258H55.8133V2.97572H57.986C59.8441 2.97572 61.2878 3.43632 62.32 4.35822C63.7282 5.63394 64.4443 7.35744 64.4443 9.51804C64.4443 11.8488 63.6064 13.6214 61.9314 14.8352M120.901 31.1853L110.293 1.71211C110.175 1.37134 110.105 1.01572 110.086 0.655656H105.497C105.497 1.03225 105.436 1.43233 105.29 1.83313L95.0096 31.1853C94.875 31.6089 94.6572 32.0467 94.366 32.508H97.3275C97.3161 32.0225 97.3766 31.5733 97.5105 31.1853L100.556 22.5294H112.27L115.281 31.186C115.439 31.658 115.511 32.0951 115.511 32.508H121.654C121.301 32.0104 121.047 31.5612 120.901 31.1853ZM101.358 20.1865L106.31 5.80266L111.397 20.1865H101.358Z" fill="white" />
    </symbol>
    <symbol id="zara" viewBox="0 0 91 38" fill="none">
        <g clip-path="url(#clip0_16603_245)">
            <path d="M86.3324 36.8682L72.8501 0.0322557L72.841 0.00787354H72.5749L69.7985 7.57753L64.7441 21.3583L64.7323 21.3474C62.9806 19.8135 60.5091 18.8546 57.3965 18.4976L56.4472 18.4003L57.389 18.2805C62.5219 17.3652 65.9723 14.1482 65.9723 10.2723C65.9723 4.95736 60.9348 1.24757 53.7189 1.24757H38.7052V1.51668H43.0678V28.98L32.4727 0.0321654L32.4632 0.00787354H32.1971L29.4207 7.57753L18.7123 36.7734L18.6464 36.781C18.4634 36.8034 18.2824 36.8212 18.1034 36.8346C17.834 36.8556 17.5662 36.8681 17.2976 36.8681H6.47765L27.0448 1.51659L27.1977 1.25091H2.04322V12.1867H2.31013C2.35745 6.86007 5.48348 1.51659 12.3902 1.51659H20.7226L0 37.133H27.9173V26.6557H27.6504C27.614 31.2985 24.9619 35.7082 19.1947 36.7039L19.0114 36.7349L23.4036 24.7547H35.7075L40.141 36.8682H35.7675V37.1331H52.9333V36.8682H48.5411V18.5956H53.6091C58.7665 18.5956 61.7245 20.8821 61.7245 24.8669V28.1082C61.7245 28.4653 61.749 28.9875 61.776 29.4242V29.4401L59.052 36.8665H55.4934V37.1314H62.8596V36.8665H59.3393L61.8199 30.104C61.825 30.1694 61.8276 30.2088 61.8276 30.2088L61.896 30.8181L61.9619 31.2212C62.3758 33.7149 63.3369 35.548 64.8177 36.6695L65.0305 36.8229C66.1555 37.5991 67.5535 37.9922 69.1879 37.9922C71.3527 37.9922 72.7962 37.4566 73.988 36.196L73.8318 36.0501C72.7337 37.0559 71.8122 37.4633 70.6576 37.4633C68.6903 37.4633 67.6608 35.0954 67.6608 32.7602V28.2188C67.6712 27.092 67.4934 25.9712 67.1345 24.9021L67.0856 24.7613V24.7563H76.0851L80.5186 36.8699H76.1452V37.1347H91V36.8699L86.3324 36.8682ZM23.5015 24.4898L29.5627 7.96485L35.6104 24.4898H23.5015ZM48.5438 18.3299V1.51659H52.4122C57.5798 1.51659 60.308 4.56507 60.308 10.3294C60.308 16.4599 58.742 18.3299 53.6091 18.3299H48.5438ZM66.9807 24.4898L66.9545 24.4244C66.5546 23.4578 65.9723 22.5759 65.239 21.826L64.9856 21.5745L64.9586 21.5494L69.937 7.96485L75.9846 24.4898H66.9807Z" fill="white" />
        </g>
        <defs>
            <clipPath id="clip0_16603_245">
                <rect width="91" height="38" fill="white" />
            </clipPath>
        </defs>
    </symbol>
    <symbol id="gucci" viewBox="0 0 156 36" fill="none">
        <g clip-path="url(#clip0_16603_247)">
            <path d="M141.312 11.2934L141.021 11.3855C139.887 9.04204 138.268 7.17651 136.162 5.78893C134.089 4.40133 131.482 3.70752 128.34 3.70752C126.591 3.70752 124.923 4.06211 123.336 4.77129C121.749 5.44972 120.356 6.42104 119.158 7.68525C117.992 8.91865 117.053 10.4142 116.34 12.1718C115.627 13.9294 115.271 15.872 115.271 17.9997C115.271 20.1273 115.627 22.0699 116.34 23.8275C117.053 25.5851 117.992 27.096 119.158 28.3603C120.356 29.5937 121.749 30.5496 123.336 31.228C124.923 31.9063 126.591 32.2455 128.34 32.2455C131.45 32.2455 133.976 31.783 135.919 30.8579C137.895 29.9021 139.563 28.4528 140.924 26.5102L141.215 26.6024L141.118 29.5626C140.373 30.3026 139.515 30.9656 138.543 31.5514C137.572 32.1065 136.519 32.5844 135.385 32.9853C134.284 33.3553 133.134 33.6328 131.936 33.8178C130.738 34.0339 129.539 34.1419 128.341 34.1419C125.847 34.1419 123.466 33.7564 121.199 32.9855C118.932 32.2146 116.94 31.1354 115.223 29.7478C113.506 28.3294 112.146 26.6335 111.142 24.66C110.138 22.6558 109.636 20.4356 109.636 17.9996C109.636 15.5636 110.138 13.3589 111.142 11.3855C112.146 9.38116 113.506 7.6698 115.223 6.25142C116.94 4.83298 118.932 3.75374 121.199 3.01369C123.466 2.24279 125.847 1.85734 128.341 1.85734C129.539 1.85734 130.738 1.94984 131.936 2.13486C133.134 2.31987 134.284 2.61281 135.385 3.01369C136.519 3.38372 137.572 3.86167 138.543 4.44757C139.515 5.0026 140.373 5.65013 141.118 6.39017L141.312 11.2934ZM34.252 20.1277C33.8959 20.2817 33.5558 20.4822 33.2317 20.7293C32.9076 20.9758 32.7456 21.315 32.7456 21.7469V27.4359C31.1909 29.5636 29.199 31.2133 26.7698 32.385C24.3406 33.5568 21.6523 34.1427 18.7048 34.1427C16.2108 34.1427 13.8302 33.7572 11.563 32.9863C9.29573 32.2154 7.30378 31.1362 5.58713 29.7486C3.87051 28.3302 2.51014 26.6343 1.50605 24.6608C0.502017 22.6566 0 20.4364 0 18.0004C0 15.5644 0.502017 13.3597 1.50605 11.3863C2.51014 9.38192 3.87051 7.67056 5.58713 6.25218C7.30378 4.83374 9.29573 3.75451 11.563 3.01449C13.8302 2.24356 16.2108 1.8581 18.7048 1.8581C19.9032 1.8581 21.1016 1.9506 22.3001 2.13561C23.4984 2.32062 24.6483 2.61357 25.7495 3.01445C26.8831 3.38447 27.9358 3.86243 28.9075 4.44832C29.8791 5.00335 30.7375 5.65089 31.4825 6.39093L31.6771 11.2937L31.3856 11.3859C30.252 9.04238 28.6325 7.17683 26.5272 5.78925C24.4543 4.40165 21.8469 3.70784 18.7052 3.70784C16.9561 3.70784 15.2881 4.06245 13.7011 4.77165C12.114 5.45005 10.7212 6.42136 9.52279 7.68557C8.35675 8.919 7.41748 10.4145 6.70498 12.1721C5.99236 13.9297 5.63605 15.8724 5.63605 18C5.63605 20.0968 5.97615 22.024 6.65635 23.7816C7.36894 25.5392 8.30824 27.0501 9.47425 28.3144C10.6726 29.5478 12.0654 30.5191 13.6524 31.2283C15.2395 31.9067 16.9238 32.2459 18.7052 32.2459C22.0737 32.2459 24.9563 31.6292 27.3531 30.3958V21.7465C27.3531 21.315 27.1751 20.9758 26.819 20.7289C26.4949 20.4824 26.171 20.2819 25.8473 20.1273L25.8917 19.8963C26.0534 19.9245 26.345 19.9553 26.7662 19.9885C27.1875 20.0167 27.6248 20.0475 28.078 20.0807H32.2565C32.6451 20.0525 33.0176 20.0218 33.3739 19.9885C33.73 19.9603 34.0052 19.9296 34.1996 19.8963L34.252 20.1277ZM69.442 2.82908C69.1179 2.98307 68.794 3.18359 68.4703 3.43065C68.1462 3.67714 67.9682 4.13967 67.9362 4.81822C67.9066 5.55827 67.8743 6.49875 67.8393 7.63967C67.8393 8.74976 67.8245 10.014 67.7949 11.4323C67.7949 12.8508 67.7801 14.3926 67.7505 16.0577V21.2381C67.7208 23.2423 67.4616 24.9537 66.9728 26.3721C66.487 27.7905 65.8392 28.9776 65.0295 29.9335C64.2522 30.8895 63.3777 31.6449 62.406 32.2C61.4666 32.755 60.5273 33.1713 59.5881 33.4488C58.6811 33.7573 57.8228 33.9423 57.0132 34.0038C56.2034 34.0963 55.5718 34.1426 55.1184 34.1426C53.2722 34.1426 51.4907 33.9113 49.7741 33.4488C48.0574 33.0173 46.5513 32.3081 45.2558 31.3211C43.9602 30.3344 42.9238 29.0547 42.1465 27.4822C41.3691 25.9096 40.9804 23.9978 40.9804 21.7468V16.5203V11.7099C40.9804 10.2298 40.9656 8.90384 40.936 7.73214C40.936 6.52954 40.9212 5.55823 40.8915 4.81818C40.8619 4.13979 40.6839 3.67726 40.3574 3.43061C40.0333 3.18411 39.7094 2.98359 39.3857 2.82904L39.4302 2.59806C39.5919 2.62626 39.8512 2.65699 40.2078 2.69025C40.5965 2.71845 40.9852 2.74918 41.3739 2.78243C41.7951 2.78243 42.2 2.79653 42.5885 2.82473H44.3375C44.7262 2.79653 45.131 2.78243 45.5521 2.78243C45.9733 2.75423 46.362 2.7235 46.7181 2.69025C47.1067 2.66204 47.3819 2.63132 47.5437 2.59806L47.5881 2.82904C47.232 2.98303 46.892 3.18355 46.5679 3.43061C46.2764 3.6771 46.1143 4.13963 46.0817 4.81818C46.0521 5.55823 46.0198 6.52954 45.9849 7.73214V21.7468C45.9849 25.1078 46.8108 27.59 48.4626 29.1935C50.1145 30.7969 52.5599 31.5986 55.7989 31.5986C56.7381 31.5986 57.807 31.4906 59.0054 31.2746C60.2039 31.0281 61.3213 30.5347 62.3577 29.7945C63.4266 29.0544 64.3173 28.0061 65.0299 26.6493C65.7748 25.2925 66.1473 23.4887 66.1473 21.2377C66.1473 18.8017 66.1325 16.7204 66.1029 14.9936C66.1029 13.236 66.088 11.7405 66.0584 10.5071C66.0584 9.24282 66.0436 8.16358 66.014 7.26933C65.9844 6.37514 65.9521 5.55801 65.9171 4.81795C65.8874 4.13955 65.7094 3.67702 65.3829 3.43037C65.0588 3.18387 64.735 2.98334 64.4113 2.82876L64.4557 2.59782C64.8118 2.65928 65.2167 2.72104 65.6703 2.78311C66.1235 2.81131 66.5446 2.82541 66.9335 2.82541C67.2896 2.82541 67.6945 2.81131 68.1481 2.78311C68.6339 2.72165 69.055 2.65989 69.4113 2.59782L69.442 2.82908ZM104.696 11.2934L104.405 11.3855C103.271 9.04204 101.652 7.17651 99.5462 5.78893C97.4733 4.40133 94.8659 3.70752 91.7242 3.70752C89.9752 3.70752 88.3071 4.06211 86.72 4.77129C85.1329 5.44972 83.7402 6.42104 82.5418 7.68525C81.3758 8.91865 80.4365 10.4142 79.7239 12.1718C79.0114 13.9294 78.6551 15.8721 78.6551 17.9997C78.6551 20.1273 79.0114 22.0699 79.7239 23.8275C80.4366 25.5851 81.3759 27.096 82.5418 28.3603C83.7402 29.5937 85.1329 30.5496 86.72 31.228C88.3071 31.9063 89.9752 32.2455 91.7243 32.2455C94.8336 32.2455 97.36 31.783 99.3034 30.8579C101.279 29.9021 102.947 28.4528 104.307 26.5102L104.599 26.6024L104.502 29.5626C103.757 30.3026 102.899 30.9656 101.927 31.5514C100.955 32.1064 99.9027 32.5844 98.7691 32.9853C97.6679 33.3553 96.5181 33.6328 95.3196 33.8178C94.1212 34.0338 92.9228 34.1419 91.7245 34.1419C89.2304 34.1419 86.8498 33.7564 84.5826 32.9855C82.3153 32.2146 80.3234 31.1354 78.6068 29.7478C76.8901 28.3294 75.5297 26.6335 74.5257 24.66C73.5216 22.6557 73.0196 20.4356 73.0196 17.9996C73.0196 15.5636 73.5216 13.3589 74.5257 11.3855C75.5297 9.38112 76.8901 7.66976 78.6068 6.25138C80.3234 4.83294 82.3153 3.7537 84.5826 3.01365C86.8499 2.24275 89.2305 1.8573 91.7245 1.8573C92.9228 1.8573 94.1212 1.94981 95.3197 2.13482C96.5181 2.31983 97.6679 2.61277 98.7691 3.01365C99.9027 3.38368 100.955 3.86163 101.927 4.44753C102.899 5.00256 103.757 5.65009 104.502 6.39013L104.696 11.2934ZM155.956 33.356C155.794 33.3278 155.519 33.297 155.13 33.2638C154.774 33.2638 154.385 33.2497 153.964 33.2215C153.543 33.2215 153.138 33.2074 152.749 33.1792H149.835C149.446 33.2074 149.057 33.2381 148.669 33.2714C148.312 33.2996 148.037 33.3303 147.843 33.3635L147.798 33.1782C148.122 33.0242 148.446 32.8237 148.77 32.5766C149.094 32.3302 149.272 31.8676 149.304 31.1891C149.334 30.449 149.349 29.6782 149.349 28.8764C149.378 28.0747 149.393 27.165 149.393 26.1475V22.6785V18.007V13.3355V9.82025C149.393 8.80269 149.378 7.90846 149.349 7.13756C149.349 6.33585 149.334 5.56497 149.304 4.82493C149.275 4.14653 149.097 3.68401 148.77 3.43735C148.446 3.15984 148.122 2.94407 147.798 2.79005L147.843 2.6048C148.037 2.66626 148.312 2.71251 148.669 2.74356C149.057 2.74356 149.446 2.75766 149.835 2.78586C150.256 2.81406 150.661 2.82817 151.049 2.82817H152.749C153.138 2.79996 153.543 2.78586 153.964 2.78586C154.385 2.75766 154.774 2.72693 155.13 2.69368C155.519 2.66548 155.794 2.63475 155.956 2.60149L156 2.78682C155.644 2.94081 155.304 3.15656 154.98 3.43408C154.688 3.68057 154.526 4.1431 154.494 4.82166C154.464 5.5617 154.432 6.33257 154.397 7.13429V28.8732C154.426 29.6749 154.459 30.4458 154.494 31.1858C154.523 31.8642 154.685 32.3267 154.98 32.5734C155.304 32.8199 155.644 33.0204 156 33.1749L155.956 33.356Z" fill="white" />
        </g>
        <defs>
            <clipPath id="clip0_16603_247">
                <rect width="156" height="36" fill="white" />
            </clipPath>
        </defs>
    </symbol>
    <symbol id="prada" viewBox="0 0 194 32" fill="none">
        <g clip-path="url(#clip0_16603_249)">
            <path fill-rule="evenodd" clip-rule="evenodd" d="M0 0.90175L2.93217 4.20848V28.4106L0.758974 31.5774L14.0684 31.5978L11.6695 28.6839L11.4204 19.9679L24.2536 20.0375C28.1434 18.7425 32.1421 15.9815 32.3342 10.3996C32.2728 4.99032 28.9703 1.52086 25.136 0.830605L0 0.90175ZM10.9449 2.44953V17.9977L20.7911 18.0689C23.0315 16.2623 24.7298 14.8787 24.6619 10.5411C24.6298 7.00433 23.8832 3.92011 20.5873 2.45029L10.9449 2.44953ZM38.4936 0.725402L41.4258 4.03289V28.2351L39.2526 31.4033L52.5613 31.4222L50.1624 28.5083L49.9133 19.7923H49.9666L63.7165 31.5206L75.1274 31.4275L64.7129 22.4193H56.0187L52.9543 19.8089L62.7465 19.8619C66.6363 18.5669 70.6342 15.8059 70.8271 10.224C70.7665 4.81548 67.4639 1.34527 63.6289 0.65577L38.4936 0.725402ZM49.4378 2.27318V17.8214L59.284 17.8925C61.5251 16.0859 63.2227 14.7024 63.1548 10.364C63.1227 6.82798 62.3761 3.74301 59.0802 2.27318H49.4378ZM86.1132 0.690586H97.5891L112.528 28.4106C113.174 30.551 115.108 30.2869 116.398 31.2254H101.935L104.108 30.5457L103.972 28.4818L100.237 22.5011L87.5391 22.5722L84.8232 28.3418C84.7326 28.998 84.0306 29.496 84.5514 30.3111L85.5705 31.2958L79.3234 31.155L82.04 30.3111L92.2924 8.71181V7.23365L87.9606 1.45502L86.1132 0.690586ZM88.3419 20.5976L93.616 10.6123L99.1071 20.5416L88.3419 20.5976ZM163.715 0.751135H175.19L190.129 28.4712C190.776 30.6116 192.709 30.3475 194 31.286H179.536L181.709 30.6048L181.573 28.5408L177.839 22.5616L165.141 22.6328L162.425 28.4008C162.333 29.0585 161.632 29.5565 162.152 30.3717L163.171 31.3563L156.925 31.2156L159.642 30.3717L169.894 8.77235V7.29345L165.562 1.51557L163.715 0.751135ZM165.944 20.6589L171.218 10.6736L176.709 20.6013L165.944 20.6589ZM120.367 0.402222L140.81 0.514994C147.394 2.05672 151.582 6.07868 152.881 13.0948L152.826 18.5669C151.626 24.8186 147.693 29.1319 140.756 31.3155L120.258 31.373L120.255 30.7107C123.372 30.4754 123.621 30.1196 123.629 28.2699V3.33506C123.594 1.96741 123.32 1.11594 120.312 1.02209L120.367 0.402222ZM131.988 2.53581L131.968 29.5134C134.664 29.5225 137.003 29.7753 138.325 29.1009C141.319 27.7333 142.71 25.633 142.837 23.6598L142.765 7.73016C142.766 5.1818 140 3.38274 138.404 2.91425C137.262 2.49116 134.983 2.47375 131.988 2.53581Z" fill="white" stroke="white" stroke-width="1.02419" stroke-miterlimit="2.613" />
        </g>
        <defs>
            <clipPath id="clip0_16603_249">
                <rect width="194" height="32" fill="white" />
            </clipPath>
        </defs>
    </symbol>
    <symbol id="calvin" viewBox="0 0 207 34" fill="none">
        <path fill-rule="evenodd" clip-rule="evenodd" d="M16.6481 30.4522C9.40945 30.4522 3.2308 23.8867 3.2308 16.7255C3.2308 9.59072 9.28013 2.89479 16.5961 2.89479C21.4053 2.89479 24.8682 5.22146 27.6867 8.86674H31.2281C30.1681 6.95346 29.0308 5.19603 27.2988 3.82545C24.3255 1.42142 20.4735 0 16.6481 0C7.47074 0 0 7.57464 0 16.7C0 25.8508 7.57464 33.3481 16.7 33.3481C20.4227 33.3481 24.068 31.9786 26.9893 29.6774C28.8252 28.204 30.1173 26.2907 31.3586 24.3255H27.8172C25.0241 27.9708 21.4573 30.4522 16.6481 30.4522ZM53.3574 13.0028C51.1346 10.1334 48.1094 8.32404 44.3614 8.32404C37.64 8.32404 32.108 13.7798 32.108 20.5012C32.108 27.2214 37.6665 32.728 44.3614 32.728C48.2653 32.728 50.9788 31.0988 53.3574 28.1001V32.1842H56.2787V8.89216H53.3574V13.0028ZM44.2066 30.0388C39.0614 30.0388 35.0027 25.5668 35.0027 20.5266C35.0027 15.5107 39.036 11.0132 44.2066 11.0132C49.3507 11.0132 53.3574 15.5118 53.3574 20.5266C53.3574 25.5668 49.3242 30.0388 44.2066 30.0388ZM59.8201 32.1842H62.9492V0.670921H59.8201V32.1842ZM74.7627 28.487L66.8521 8.89216H63.7495L73.2374 32.1842H76.3908L85.8533 8.89216H82.8027L74.7627 28.487ZM87.1454 32.1842H90.2734V8.89216H87.1454V32.1842ZM87.1454 5.89348H90.2734V0.670921H87.1454V5.89348ZM103.743 8.32293C100.795 8.32293 98.7014 9.87478 96.7627 11.9428V8.89216H93.8668V32.1842H96.9428V17.991C96.9174 14.2429 100.019 11.0121 103.794 11.0121C108.523 11.0121 110.902 15.1228 110.902 19.3627V32.1853H113.797V19.3627C113.798 13.3134 110.257 8.32293 103.743 8.32293ZM142.829 0.670921L128.611 18.7415V0.670921H125.535V32.1842H128.611V23.5242L132.644 18.5094L142.907 32.1842H146.812L134.608 16.0269L146.812 0.670921H142.829ZM147.948 32.1842H151V0.670921H147.948V32.1842ZM176.256 14.7602C174.136 10.8043 169.896 8.32293 165.423 8.32293C158.755 8.32293 153.118 13.8815 153.118 20.5509C153.118 27.2711 158.806 32.7269 165.477 32.7269C168.655 32.7269 171.785 31.4602 174.084 29.2629C175.481 27.9443 176.308 26.2896 177.056 24.5576H173.775C172.119 27.7895 169.198 30.0377 165.422 30.0377C163.123 30.0377 160.874 29.107 159.168 27.5298C157.408 25.9282 156.634 23.9619 156.297 21.6363H177.781C177.783 19.2068 177.445 16.8802 176.256 14.7602ZM156.402 18.9482C157.334 14.5801 160.771 11.0121 165.477 11.0121C169.432 11.0121 173.672 13.4427 174.603 18.9482H156.402ZM180.057 32.1842H183.132V8.89216H180.057V32.1842ZM180.057 5.99738H183.132V0.670921H180.057V5.99738ZM196.654 8.32293C193.654 8.32293 191.56 9.87478 189.595 11.9428V8.89216H186.648V32.1842H189.751V17.991C189.725 14.2175 192.905 11.0121 196.704 11.0121C201.411 11.0121 203.893 15.1228 203.893 19.3627V32.1853H206.788V19.3627C206.788 13.3134 203.193 8.32293 196.654 8.32293Z" fill="white" />
    </symbol>
</svg>