<svg xmlns="http://www.w3.org/2000/svg">
  <symbol id="planet" viewBox="0 0 56 56" fill="none">
      <g filter="url(#filter0_f_28_159)">
        <path d="M47.1065 8.8933C45.2743 7.06103 40.9262 8.13588 35.5916 11.3078C33.2784 10.2538 30.7076 9.66596 28.0001 9.66596C17.8744 9.66596 9.66647 17.8745 9.66647 27.9996C9.66647 30.7084 10.2537 33.2792 11.3083 35.5912C8.13577 40.9256 7.06155 45.2738 8.89256 47.106C10.7261 48.9383 15.0742 47.8641 20.4075 44.6915C22.7207 45.7449 25.2915 46.3334 28.0002 46.3334C38.1247 46.3334 46.3339 38.1254 46.3339 27.9997C46.3339 25.2922 45.7455 22.7214 44.6908 20.4088C47.8647 15.0742 48.9389 10.7256 47.1065 8.8933ZM17.8768 44.2033C13.5703 46.4798 10.8542 46.7092 10.0718 45.928C9.28928 45.1455 9.52006 42.4296 11.7966 38.1217C11.9321 37.8641 12.0749 37.6028 12.2215 37.3404C13.4715 39.4461 15.1304 41.2821 17.0896 42.7347C17.0933 42.7323 17.0957 42.7323 17.0981 42.7299C17.6206 42.454 18.154 42.1537 18.696 41.8314C17.8097 41.2345 16.9809 40.5509 16.2143 39.7855C14.6835 38.2535 13.4812 36.47 12.6425 34.4864C11.7733 32.432 11.3326 30.2506 11.3326 27.9996C11.3326 25.7487 11.7733 23.566 12.6425 21.5128C13.4811 19.528 14.6835 17.7458 16.2143 16.2144C17.7462 14.683 19.5285 13.4813 21.5133 12.6421C23.5665 11.7735 25.7491 11.3328 28.0001 11.3328C30.2511 11.3328 32.4325 11.7735 34.4869 12.6421C36.4706 13.4813 38.254 14.6831 39.7848 16.2144C40.5513 16.9804 41.2349 17.8099 41.8319 18.6961C42.1541 18.1535 42.4544 17.6201 42.7303 17.0982C42.7315 17.0952 42.7327 17.0928 42.7351 17.0897C41.2813 15.1305 39.4465 13.4716 37.3408 12.2216C37.6033 12.0745 37.8645 11.9323 38.1221 11.7962C42.4287 9.51955 45.146 9.28947 45.9285 10.0713C46.7098 10.8538 46.4802 13.5705 44.2037 17.8771C43.0342 20.0903 41.4669 22.4785 39.5455 24.9761C37.5411 27.5823 35.2425 30.1861 32.7144 32.7142C30.1851 35.2422 27.5813 37.5408 24.9764 39.5464C22.4788 41.4666 20.0899 43.034 17.8768 44.2033ZM43.3578 34.4864C42.518 36.4701 41.3168 38.2535 39.7848 39.7855C38.254 41.3163 36.4706 42.5174 34.487 43.3573C32.4326 44.2263 30.25 44.6658 28.0002 44.6658C25.9787 44.6658 24.0123 44.3094 22.1445 43.6063C25.8457 41.1892 29.9142 37.8702 33.8925 33.8919C37.8708 29.9136 41.1898 25.8444 43.608 22.1432C44.31 24.011 44.6664 25.9775 44.6664 27.9996C44.6664 30.2506 44.2257 32.432 43.3578 34.4864Z" fill="#FFEA00" />
      </g>
      <path d="M47.1065 8.8933C45.2743 7.06103 40.9262 8.13588 35.5916 11.3078C33.2784 10.2538 30.7076 9.66596 28.0001 9.66596C17.8744 9.66596 9.66647 17.8745 9.66647 27.9996C9.66647 30.7084 10.2537 33.2792 11.3083 35.5912C8.13577 40.9256 7.06155 45.2738 8.89256 47.106C10.7261 48.9383 15.0742 47.8641 20.4075 44.6915C22.7207 45.7449 25.2915 46.3334 28.0002 46.3334C38.1247 46.3334 46.3339 38.1254 46.3339 27.9997C46.3339 25.2922 45.7455 22.7214 44.6908 20.4088C47.8647 15.0742 48.9389 10.7256 47.1065 8.8933ZM17.8768 44.2033C13.5703 46.4798 10.8542 46.7092 10.0718 45.928C9.28928 45.1455 9.52006 42.4296 11.7966 38.1217C11.9321 37.8641 12.0749 37.6028 12.2215 37.3404C13.4715 39.4461 15.1304 41.2821 17.0896 42.7347C17.0933 42.7323 17.0957 42.7323 17.0981 42.7299C17.6206 42.454 18.154 42.1537 18.696 41.8314C17.8097 41.2345 16.9809 40.5509 16.2143 39.7855C14.6835 38.2535 13.4812 36.47 12.6425 34.4864C11.7733 32.432 11.3326 30.2506 11.3326 27.9996C11.3326 25.7487 11.7733 23.566 12.6425 21.5128C13.4811 19.528 14.6835 17.7458 16.2143 16.2144C17.7462 14.683 19.5285 13.4813 21.5133 12.6421C23.5665 11.7735 25.7491 11.3328 28.0001 11.3328C30.2511 11.3328 32.4325 11.7735 34.4869 12.6421C36.4706 13.4813 38.254 14.6831 39.7848 16.2144C40.5513 16.9804 41.2349 17.8099 41.8319 18.6961C42.1541 18.1535 42.4544 17.6201 42.7303 17.0982C42.7315 17.0952 42.7327 17.0928 42.7351 17.0897C41.2813 15.1305 39.4465 13.4716 37.3408 12.2216C37.6033 12.0745 37.8645 11.9323 38.1221 11.7962C42.4287 9.51955 45.146 9.28947 45.9285 10.0713C46.7098 10.8538 46.4802 13.5705 44.2037 17.8771C43.0342 20.0903 41.4669 22.4785 39.5455 24.9761C37.5411 27.5823 35.2425 30.1861 32.7144 32.7142C30.1851 35.2422 27.5813 37.5408 24.9764 39.5464C22.4788 41.4666 20.0899 43.034 17.8768 44.2033ZM43.3578 34.4864C42.518 36.4701 41.3168 38.2535 39.7848 39.7855C38.254 41.3163 36.4706 42.5174 34.487 43.3573C32.4326 44.2263 30.25 44.6658 28.0002 44.6658C25.9787 44.6658 24.0123 44.3094 22.1445 43.6063C25.8457 41.1892 29.9142 37.8702 33.8925 33.8919C37.8708 29.9136 41.1898 25.8444 43.608 22.1432C44.31 24.011 44.6664 25.9775 44.6664 27.9996C44.6664 30.2506 44.2257 32.432 43.3578 34.4864Z" fill="#FFEA00" />
      <defs>
        <filter id="filter0_f_28_159" x="0" y="0" width="56" height="55.9995" filterUnits="userSpaceOnUse" color-interpolation-filters="sRGB">
          <feFlood flood-opacity="0" result="BackgroundImageFix" />
          <feBlend mode="normal" in="SourceGraphic" in2="BackgroundImageFix" result="shape" />
          <feGaussianBlur stdDeviation="4" result="effect1_foregroundBlur_28_159" />
        </filter>
      </defs>
  </symbol>
  <symbol id="laces" viewBox="0 0 54 54" fill="none">
    <g filter="url(#filter0_f_28_208)">
      <path d="M20.994 8.20727C20.9489 8.16368 20.8982 8.12624 20.8433 8.09591C20.8302 8.08819 20.8176 8.08128 20.8026 8.07437C20.748 8.04642 20.6899 8.02579 20.6299 8.01301C20.6262 8.01301 20.6226 8.01301 20.6185 8.01301C20.5759 8.00473 20.5326 8.00038 20.4893 8H13.0969C13.053 8.00032 13.0091 8.00481 12.966 8.01341H12.9563C12.8961 8.0262 12.8379 8.04698 12.7831 8.07519C12.7701 8.08169 12.7575 8.0886 12.7445 8.09591C12.6897 8.12652 12.639 8.16408 12.5938 8.20768L8.20849 12.5929C8.07509 12.7263 8.00009 12.9071 8 13.0957V39.5463C8.00122 40.1922 8.21765 40.8194 8.6151 41.3286C9.01254 41.8379 9.56833 42.2002 10.1947 42.3583V45.2878C10.1947 45.4764 10.2696 45.6573 10.403 45.7907C10.5364 45.9241 10.7173 45.999 10.9059 45.999C11.0945 45.999 11.2754 45.9241 11.4088 45.7907C11.5422 45.6573 11.6171 45.4764 11.6171 45.2878V42.3583C12.2435 42.2002 12.7993 41.8379 13.1967 41.3286C13.5941 40.8194 13.8106 40.1922 13.8118 39.5463V13.8069H19.7797V39.5463C19.7808 40.192 19.9969 40.8189 20.3939 41.3281C20.791 41.8373 21.3463 42.1998 21.9723 42.3583V45.2878C21.9723 45.4764 22.0472 45.6573 22.1806 45.7907C22.314 45.9241 22.4949 45.999 22.6835 45.999C22.8722 45.999 23.0531 45.9241 23.1864 45.7907C23.3198 45.6573 23.3948 45.4764 23.3948 45.2878V42.3583C24.0211 42.2001 24.5768 41.8378 24.9742 41.3286C25.3717 40.8193 25.5881 40.1922 25.5894 39.5463V13.0957C25.5893 12.9071 25.5143 12.7263 25.3809 12.5929L20.994 8.20727ZM12.3857 39.5463C12.3792 39.935 12.2203 40.3056 11.9432 40.5782C11.666 40.8508 11.2928 41.0035 10.9041 41.0035C10.5153 41.0035 10.1421 40.8508 9.86499 40.5782C9.58783 40.3056 9.42891 39.935 9.42247 39.5463V13.3903L12.3857 10.4271V39.5463ZM13.8081 12.3845V9.42125H19.7797V12.3845H13.8081ZM24.1653 39.5463C24.1589 39.935 24 40.3056 23.7228 40.5782C23.4457 40.8508 23.0725 41.0035 22.6837 41.0035C22.295 41.0035 21.9218 40.8508 21.6446 40.5782C21.3675 40.3056 21.2086 39.935 21.2021 39.5463V10.4271L24.1653 13.3903V39.5463Z" fill="#FFEA00" />
      <path d="M45.7917 12.5929L41.4064 8.20727C41.3614 8.16369 41.3108 8.12624 41.256 8.09591C41.2426 8.08819 41.23 8.08128 41.2154 8.07437C41.1609 8.04648 41.1029 8.02585 41.0431 8.01301H41.0313C40.9887 8.00473 40.9454 8.00038 40.902 8H33.5093C33.4653 8.00033 33.4215 8.00483 33.3784 8.01341H33.369C33.3087 8.02617 33.2503 8.04694 33.1955 8.07519C33.1825 8.08169 33.1699 8.0886 33.1573 8.09591C33.1022 8.12641 33.0514 8.16399 33.0061 8.20768L28.6208 12.5929C28.4874 12.7263 28.4124 12.9071 28.4124 13.0957V39.5463C28.4136 40.1922 28.63 40.8194 29.0274 41.3286C29.4249 41.8379 29.9807 42.2002 30.607 42.3583V45.2878C30.607 45.4764 30.682 45.6573 30.8153 45.7907C30.9487 45.9241 31.1296 45.999 31.3183 45.999C31.5069 45.999 31.6878 45.9241 31.8212 45.7907C31.9546 45.6573 32.0295 45.4764 32.0295 45.2878V42.3583C32.6558 42.2002 33.2116 41.8379 33.6091 41.3286C34.0065 40.8194 34.2229 40.1922 34.2242 39.5463V13.8069H40.192V39.5463C40.1931 40.192 40.4093 40.8189 40.8063 41.3281C41.2034 41.8373 41.7587 42.1998 42.3846 42.3583V45.2878C42.3846 45.4764 42.4596 45.6573 42.593 45.7907C42.7263 45.9241 42.9072 45.999 43.0959 45.999C43.2845 45.999 43.4654 45.9241 43.5988 45.7907C43.7322 45.6573 43.8071 45.4764 43.8071 45.2878V42.3583C44.4334 42.2002 44.9892 41.8379 45.3867 41.3286C45.7841 40.8194 46.0005 40.1922 46.0018 39.5463V13.0957C46.0015 13.0022 45.9828 12.9097 45.9468 12.8234C45.9107 12.7371 45.858 12.6588 45.7917 12.5929ZM32.798 39.5463C32.7916 39.935 32.6327 40.3056 32.3555 40.5782C32.0784 40.8508 31.7052 41.0035 31.3164 41.0035C30.9277 41.0035 30.5545 40.8508 30.2773 40.5782C30.0002 40.3056 29.8413 39.935 29.8348 39.5463V13.3903L32.798 10.4271V39.5463ZM34.2205 12.3845V9.42125H40.192V12.3845H34.2205ZM44.5777 39.5463C44.5712 39.935 44.4123 40.3056 44.1352 40.5782C43.858 40.8508 43.4848 41.0035 43.0961 41.0035C42.7073 41.0035 42.3342 40.8508 42.057 40.5782C41.7798 40.3056 41.6209 39.935 41.6145 39.5463V10.4271L44.5777 13.3903V39.5463Z" fill="#FFEA00" />
    </g>
    <path d="M20.994 8.20727C20.9489 8.16368 20.8982 8.12624 20.8433 8.09591C20.8302 8.08819 20.8176 8.08128 20.8026 8.07437C20.748 8.04642 20.6899 8.02579 20.6299 8.01301C20.6262 8.01301 20.6226 8.01301 20.6185 8.01301C20.5759 8.00473 20.5326 8.00038 20.4893 8H13.0969C13.053 8.00032 13.0091 8.00481 12.966 8.01341H12.9563C12.8961 8.0262 12.8379 8.04698 12.7831 8.07519C12.7701 8.08169 12.7575 8.0886 12.7445 8.09591C12.6897 8.12652 12.639 8.16408 12.5938 8.20768L8.20849 12.5929C8.07509 12.7263 8.00009 12.9071 8 13.0957V39.5463C8.00122 40.1922 8.21765 40.8194 8.6151 41.3286C9.01254 41.8379 9.56833 42.2002 10.1947 42.3583V45.2878C10.1947 45.4764 10.2696 45.6573 10.403 45.7907C10.5364 45.9241 10.7173 45.999 10.9059 45.999C11.0945 45.999 11.2754 45.9241 11.4088 45.7907C11.5422 45.6573 11.6171 45.4764 11.6171 45.2878V42.3583C12.2435 42.2002 12.7993 41.8379 13.1967 41.3286C13.5941 40.8194 13.8106 40.1922 13.8118 39.5463V13.8069H19.7797V39.5463C19.7808 40.192 19.9969 40.8189 20.3939 41.3281C20.791 41.8373 21.3463 42.1998 21.9723 42.3583V45.2878C21.9723 45.4764 22.0472 45.6573 22.1806 45.7907C22.314 45.9241 22.4949 45.999 22.6835 45.999C22.8722 45.999 23.0531 45.9241 23.1864 45.7907C23.3198 45.6573 23.3948 45.4764 23.3948 45.2878V42.3583C24.0211 42.2001 24.5768 41.8378 24.9742 41.3286C25.3717 40.8193 25.5881 40.1922 25.5894 39.5463V13.0957C25.5893 12.9071 25.5143 12.7263 25.3809 12.5929L20.994 8.20727ZM12.3857 39.5463C12.3792 39.935 12.2203 40.3056 11.9432 40.5782C11.666 40.8508 11.2928 41.0035 10.9041 41.0035C10.5153 41.0035 10.1421 40.8508 9.86499 40.5782C9.58783 40.3056 9.42891 39.935 9.42247 39.5463V13.3903L12.3857 10.4271V39.5463ZM13.8081 12.3845V9.42125H19.7797V12.3845H13.8081ZM24.1653 39.5463C24.1589 39.935 24 40.3056 23.7228 40.5782C23.4457 40.8508 23.0725 41.0035 22.6837 41.0035C22.295 41.0035 21.9218 40.8508 21.6446 40.5782C21.3675 40.3056 21.2086 39.935 21.2021 39.5463V10.4271L24.1653 13.3903V39.5463Z" fill="#FFEA00" />
    <path d="M45.7917 12.5929L41.4064 8.20727C41.3614 8.16369 41.3108 8.12624 41.256 8.09591C41.2426 8.08819 41.23 8.08128 41.2154 8.07437C41.1609 8.04648 41.1029 8.02585 41.0431 8.01301H41.0313C40.9887 8.00473 40.9454 8.00038 40.902 8H33.5093C33.4653 8.00033 33.4215 8.00483 33.3784 8.01341H33.369C33.3087 8.02617 33.2503 8.04694 33.1955 8.07519C33.1825 8.08169 33.1699 8.0886 33.1573 8.09591C33.1022 8.12641 33.0514 8.16399 33.0061 8.20768L28.6208 12.5929C28.4874 12.7263 28.4124 12.9071 28.4124 13.0957V39.5463C28.4136 40.1922 28.63 40.8194 29.0274 41.3286C29.4249 41.8379 29.9807 42.2002 30.607 42.3583V45.2878C30.607 45.4764 30.682 45.6573 30.8153 45.7907C30.9487 45.9241 31.1296 45.999 31.3183 45.999C31.5069 45.999 31.6878 45.9241 31.8212 45.7907C31.9546 45.6573 32.0295 45.4764 32.0295 45.2878V42.3583C32.6558 42.2002 33.2116 41.8379 33.6091 41.3286C34.0065 40.8194 34.2229 40.1922 34.2242 39.5463V13.8069H40.192V39.5463C40.1931 40.192 40.4093 40.8189 40.8063 41.3281C41.2034 41.8373 41.7587 42.1998 42.3846 42.3583V45.2878C42.3846 45.4764 42.4596 45.6573 42.593 45.7907C42.7263 45.9241 42.9072 45.999 43.0959 45.999C43.2845 45.999 43.4654 45.9241 43.5988 45.7907C43.7322 45.6573 43.8071 45.4764 43.8071 45.2878V42.3583C44.4334 42.2002 44.9892 41.8379 45.3867 41.3286C45.7841 40.8194 46.0005 40.1922 46.0018 39.5463V13.0957C46.0015 13.0022 45.9828 12.9097 45.9468 12.8234C45.9107 12.7371 45.858 12.6588 45.7917 12.5929ZM32.798 39.5463C32.7916 39.935 32.6327 40.3056 32.3555 40.5782C32.0784 40.8508 31.7052 41.0035 31.3164 41.0035C30.9277 41.0035 30.5545 40.8508 30.2773 40.5782C30.0002 40.3056 29.8413 39.935 29.8348 39.5463V13.3903L32.798 10.4271V39.5463ZM34.2205 12.3845V9.42125H40.192V12.3845H34.2205ZM44.5777 39.5463C44.5712 39.935 44.4123 40.3056 44.1352 40.5782C43.858 40.8508 43.4848 41.0035 43.0961 41.0035C42.7073 41.0035 42.3342 40.8508 42.057 40.5782C41.7798 40.3056 41.6209 39.935 41.6145 39.5463V10.4271L44.5777 13.3903V39.5463Z" fill="#FFEA00" />
    <defs>
      <filter id="filter0_f_28_208" x="0" y="0" width="54.0017" height="53.999" filterUnits="userSpaceOnUse" color-interpolation-filters="sRGB">
        <feFlood flood-opacity="0" result="BackgroundImageFix" />
        <feBlend mode="normal" in="SourceGraphic" in2="BackgroundImageFix" result="shape" />
        <feGaussianBlur stdDeviation="4" result="effect1_foregroundBlur_28_208" />
      </filter>
    </defs>
  </symbol>
  <symbol id="none" viewBox="0 0 56 56" fill="none">
    <g filter="url(#filter0_f_28_216)">
      <path d="M44.4812 16.6585C43.5556 15.3215 42.4729 14.1005 41.2562 13.0217C41.2302 12.9986 41.2021 12.9778 41.1762 12.9549C40.7807 12.6076 40.3681 12.2808 39.9464 11.9652C39.4203 11.5716 38.8798 11.1962 38.3168 10.8557C30.4413 6.12705 20.3575 7.36695 13.862 13.8628C7.36645 20.3586 6.12716 30.4424 10.8564 38.3179C12.5485 41.1102 14.8904 43.452 17.683 45.1439C25.5585 49.8728 35.6426 48.6329 42.1381 42.1371C48.6336 35.6409 49.8729 25.5572 45.1434 17.6817C44.9332 17.3338 44.7122 16.9929 44.4812 16.6585ZM17.9366 43.7206C17.8384 43.6571 17.7392 43.5949 17.6421 43.5299C17.5179 43.4466 17.394 43.3632 17.272 43.2772C17.0931 43.1508 16.9177 43.0199 16.7434 42.8875C16.6314 42.8026 16.5182 42.719 16.4083 42.6314C16.2197 42.4816 16.0363 42.3257 15.8538 42.1688C15.7638 42.0913 15.6713 42.0168 15.5828 41.9378C15.3238 41.7065 15.0708 41.4681 14.8242 41.2234L14.7769 41.1761C14.5324 40.9304 14.2947 40.6784 14.064 40.4193C13.9801 40.3253 13.9007 40.2273 13.8187 40.1315C13.6676 39.9554 13.5168 39.7781 13.3722 39.5968C13.28 39.4812 13.1921 39.3625 13.103 39.2447C12.9752 39.0759 12.8485 38.9065 12.7262 38.7338C12.637 38.6075 12.5507 38.479 12.4646 38.3505C12.4011 38.2559 12.3404 38.1595 12.2788 38.0637L38.0632 12.279C38.1614 12.3421 38.2606 12.4044 38.3577 12.4697C38.4819 12.5527 38.6058 12.6363 38.7278 12.7224C38.9067 12.8484 39.0821 12.9796 39.2564 13.1118C39.3684 13.1969 39.4816 13.2805 39.5915 13.3681C39.7801 13.518 39.9635 13.6739 40.146 13.8308C40.236 13.908 40.3284 13.9827 40.4169 14.0618C40.676 14.2931 40.929 14.5311 41.1756 14.7762L41.2229 14.8235C41.4673 15.0691 41.7051 15.3212 41.9358 15.5803C42.0197 15.6743 42.099 15.7722 42.1811 15.8681C42.3322 16.0441 42.4829 16.2211 42.6276 16.4027C42.7198 16.5184 42.8076 16.6371 42.8968 16.7549C43.0246 16.9233 43.1513 17.0927 43.2736 17.2657C43.3627 17.3924 43.4491 17.5206 43.5352 17.649C43.5986 17.7436 43.6594 17.8401 43.721 17.9359L17.9366 43.7206ZM27.9999 9.33347C31.0995 9.33408 34.1506 10.1062 36.8773 11.5801L11.5796 36.8772C8.45225 31.0927 8.59904 24.0896 11.9663 18.4413C15.3335 12.7932 21.4241 9.33347 27.9999 9.33347ZM27.9999 46.6661C24.9003 46.6652 21.8492 45.8931 19.1225 44.4194L44.4202 19.1224C47.5475 24.9066 47.4008 31.9099 44.0335 37.558C40.6663 43.2064 34.5757 46.6661 27.9999 46.6661Z" fill="#FFEA00" />
    </g>
    <path d="M44.4812 16.6585C43.5556 15.3215 42.4729 14.1005 41.2562 13.0217C41.2302 12.9986 41.2021 12.9778 41.1762 12.9549C40.7807 12.6076 40.3681 12.2808 39.9464 11.9652C39.4203 11.5716 38.8798 11.1962 38.3168 10.8557C30.4413 6.12705 20.3575 7.36695 13.862 13.8628C7.36645 20.3586 6.12716 30.4424 10.8564 38.3179C12.5485 41.1102 14.8904 43.452 17.683 45.1439C25.5585 49.8728 35.6426 48.6329 42.1381 42.1371C48.6336 35.6409 49.8729 25.5572 45.1434 17.6817C44.9332 17.3338 44.7122 16.9929 44.4812 16.6585ZM17.9366 43.7206C17.8384 43.6571 17.7392 43.5949 17.6421 43.5299C17.5179 43.4466 17.394 43.3632 17.272 43.2772C17.0931 43.1508 16.9177 43.0199 16.7434 42.8875C16.6314 42.8026 16.5182 42.719 16.4083 42.6314C16.2197 42.4816 16.0363 42.3257 15.8538 42.1688C15.7638 42.0913 15.6713 42.0168 15.5828 41.9378C15.3238 41.7065 15.0708 41.4681 14.8242 41.2234L14.7769 41.1761C14.5324 40.9304 14.2947 40.6784 14.064 40.4193C13.9801 40.3253 13.9007 40.2273 13.8187 40.1315C13.6676 39.9554 13.5168 39.7781 13.3722 39.5968C13.28 39.4812 13.1921 39.3625 13.103 39.2447C12.9752 39.0759 12.8485 38.9065 12.7262 38.7338C12.637 38.6075 12.5507 38.479 12.4646 38.3505C12.4011 38.2559 12.3404 38.1595 12.2788 38.0637L38.0632 12.279C38.1614 12.3421 38.2606 12.4044 38.3577 12.4697C38.4819 12.5527 38.6058 12.6363 38.7278 12.7224C38.9067 12.8484 39.0821 12.9796 39.2564 13.1118C39.3684 13.1969 39.4816 13.2805 39.5915 13.3681C39.7801 13.518 39.9635 13.6739 40.146 13.8308C40.236 13.908 40.3284 13.9827 40.4169 14.0618C40.676 14.2931 40.929 14.5311 41.1756 14.7762L41.2229 14.8235C41.4673 15.0691 41.7051 15.3212 41.9358 15.5803C42.0197 15.6743 42.099 15.7722 42.1811 15.8681C42.3322 16.0441 42.4829 16.2211 42.6276 16.4027C42.7198 16.5184 42.8076 16.6371 42.8968 16.7549C43.0246 16.9233 43.1513 17.0927 43.2736 17.2657C43.3627 17.3924 43.4491 17.5206 43.5352 17.649C43.5986 17.7436 43.6594 17.8401 43.721 17.9359L17.9366 43.7206ZM27.9999 9.33347C31.0995 9.33408 34.1506 10.1062 36.8773 11.5801L11.5796 36.8772C8.45225 31.0927 8.59904 24.0896 11.9663 18.4413C15.3335 12.7932 21.4241 9.33347 27.9999 9.33347ZM27.9999 46.6661C24.9003 46.6652 21.8492 45.8931 19.1225 44.4194L44.4202 19.1224C47.5475 24.9066 47.4008 31.9099 44.0335 37.558C40.6663 43.2064 34.5757 46.6661 27.9999 46.6661Z" fill="#FFEA00" />
    <defs>
      <filter id="filter0_f_28_216" x="0" y="0" width="56" height="55.9998" filterUnits="userSpaceOnUse" color-interpolation-filters="sRGB">
        <feFlood flood-opacity="0" result="BackgroundImageFix" />
        <feBlend mode="normal" in="SourceGraphic" in2="BackgroundImageFix" result="shape" />
        <feGaussianBlur stdDeviation="4" result="effect1_foregroundBlur_28_216" />
      </filter>
    </defs>
  </symbol>
  <symbol id="lamp" viewBox="0 0 56 56" fill="none">
    <g filter="url(#filter0_f_37_205)">
      <path d="M33.4545 16.7487V8.90912C33.4545 8.40662 33.0479 8 32.5454 8H23.4545C22.952 8 22.5454 8.40662 22.5454 8.90912V16.7487C19.2901 18.6384 17.0908 22.1543 17.0908 26.1818C17.0908 32.1973 21.9843 37.0908 27.9999 37.0908C34.0155 37.0908 38.909 32.1973 38.909 26.1818C38.9091 22.1543 36.7098 18.6384 33.4545 16.7487ZM24.3635 9.81815H31.6363V15.9091C30.4969 15.5045 29.2764 15.2727 27.9999 15.2727C26.7234 15.2727 25.5029 15.5045 24.3635 15.9091V9.81815ZM28 35.2727C22.9875 35.2727 18.9091 31.1942 18.9091 26.1818C18.9091 21.1693 22.9875 17.0908 28 17.0908C33.0124 17.0908 37.0909 21.1693 37.0909 26.1818C37.0909 31.1942 33.0124 35.2727 28 35.2727Z" fill="#FFEA00" />
      <path d="M43.1882 10.9934C42.8331 10.6383 42.2578 10.6383 41.9027 10.9934L38.2664 14.6298C37.9112 14.9849 37.9112 15.5602 38.2664 15.9153C38.4438 16.0928 38.6765 16.1816 38.9091 16.1816C39.1416 16.1816 39.3742 16.0928 39.5518 15.9153L43.1882 12.2789C43.5434 11.9237 43.5434 11.3485 43.1882 10.9934Z" fill="#FFEA00" />
      <path d="M17.7336 14.6298L14.0972 10.9934C13.7421 10.6383 13.1668 10.6383 12.8118 10.9934C12.4566 11.3485 12.4566 11.9238 12.8118 12.2789L16.4481 15.9153C16.6256 16.0928 16.8583 16.1816 17.0909 16.1816C17.3234 16.1816 17.556 16.0928 17.7336 15.9153C18.0888 15.5601 18.0888 14.9848 17.7336 14.6298Z" fill="#FFEA00" />
      <path d="M43.1883 40.0844L39.5518 36.448C39.1967 36.0929 38.6214 36.0929 38.2664 36.448C37.9112 36.8031 37.9112 37.3784 38.2664 37.7335L41.9027 41.3699C42.0803 41.5474 42.3129 41.6362 42.5455 41.6362C42.7781 41.6362 43.0107 41.5474 43.1883 41.3699C43.5435 41.0147 43.5435 40.4394 43.1883 40.0844Z" fill="#FFEA00" />
      <path d="M17.7337 36.448C17.3786 36.0929 16.8033 36.0929 16.4482 36.448L12.8118 40.0844C12.4566 40.4395 12.4566 41.0148 12.8118 41.3699C12.9893 41.5474 13.222 41.6362 13.4545 41.6362C13.6871 41.6362 13.9197 41.5474 14.0973 41.3699L17.7337 37.7335C18.0889 37.3783 18.0889 36.8031 17.7337 36.448Z" fill="#FFEA00" />
      <path d="M12.5454 26.1816H8.90912C8.40662 26.1816 8 26.5883 8 27.0908C8 27.5933 8.40662 27.9999 8.90912 27.9999H12.5455C13.0479 27.9999 13.4545 27.5933 13.4545 27.0908C13.4545 26.5883 13.0479 26.1816 12.5454 26.1816Z" fill="#FFEA00" />
      <path d="M47.0909 26.1816H43.4545C42.952 26.1816 42.5454 26.5883 42.5454 27.0908C42.5454 27.5933 42.952 27.9999 43.4545 27.9999H47.0909C47.5934 27.9999 48 27.5933 48 27.0908C47.9999 26.5883 47.5934 26.1816 47.0909 26.1816Z" fill="#FFEA00" />
      <path d="M27.9999 40.7271C27.4974 40.7271 27.0908 41.1337 27.0908 41.6362V47.0907C27.0908 47.5932 27.4974 47.9998 27.9999 47.9998C28.5024 47.9998 28.9091 47.5932 28.9091 47.0907V41.6362C28.909 41.1337 28.5024 40.7271 27.9999 40.7271Z" fill="#FFEA00" />
    </g>
    <path d="M33.4545 16.7487V8.90912C33.4545 8.40662 33.0479 8 32.5454 8H23.4545C22.952 8 22.5454 8.40662 22.5454 8.90912V16.7487C19.2901 18.6384 17.0908 22.1543 17.0908 26.1818C17.0908 32.1973 21.9843 37.0908 27.9999 37.0908C34.0155 37.0908 38.909 32.1973 38.909 26.1818C38.9091 22.1543 36.7098 18.6384 33.4545 16.7487ZM24.3635 9.81815H31.6363V15.9091C30.4969 15.5045 29.2764 15.2727 27.9999 15.2727C26.7234 15.2727 25.5029 15.5045 24.3635 15.9091V9.81815ZM28 35.2727C22.9875 35.2727 18.9091 31.1942 18.9091 26.1818C18.9091 21.1693 22.9875 17.0908 28 17.0908C33.0124 17.0908 37.0909 21.1693 37.0909 26.1818C37.0909 31.1942 33.0124 35.2727 28 35.2727Z" fill="#FFEA00" />
    <path d="M43.1882 10.9934C42.8331 10.6383 42.2578 10.6383 41.9027 10.9934L38.2664 14.6298C37.9112 14.9849 37.9112 15.5602 38.2664 15.9153C38.4438 16.0928 38.6765 16.1816 38.9091 16.1816C39.1416 16.1816 39.3742 16.0928 39.5518 15.9153L43.1882 12.2789C43.5434 11.9237 43.5434 11.3485 43.1882 10.9934Z" fill="#FFEA00" />
    <path d="M17.7336 14.6298L14.0972 10.9934C13.7421 10.6383 13.1668 10.6383 12.8118 10.9934C12.4566 11.3485 12.4566 11.9238 12.8118 12.2789L16.4481 15.9153C16.6256 16.0928 16.8583 16.1816 17.0909 16.1816C17.3234 16.1816 17.556 16.0928 17.7336 15.9153C18.0888 15.5601 18.0888 14.9848 17.7336 14.6298Z" fill="#FFEA00" />
    <path d="M43.1883 40.0844L39.5518 36.448C39.1967 36.0929 38.6214 36.0929 38.2664 36.448C37.9112 36.8031 37.9112 37.3784 38.2664 37.7335L41.9027 41.3699C42.0803 41.5474 42.3129 41.6362 42.5455 41.6362C42.7781 41.6362 43.0107 41.5474 43.1883 41.3699C43.5435 41.0147 43.5435 40.4394 43.1883 40.0844Z" fill="#FFEA00" />
    <path d="M17.7337 36.448C17.3786 36.0929 16.8033 36.0929 16.4482 36.448L12.8118 40.0844C12.4566 40.4395 12.4566 41.0148 12.8118 41.3699C12.9893 41.5474 13.222 41.6362 13.4545 41.6362C13.6871 41.6362 13.9197 41.5474 14.0973 41.3699L17.7337 37.7335C18.0889 37.3783 18.0889 36.8031 17.7337 36.448Z" fill="#FFEA00" />
    <path d="M12.5454 26.1816H8.90912C8.40662 26.1816 8 26.5883 8 27.0908C8 27.5933 8.40662 27.9999 8.90912 27.9999H12.5455C13.0479 27.9999 13.4545 27.5933 13.4545 27.0908C13.4545 26.5883 13.0479 26.1816 12.5454 26.1816Z" fill="#FFEA00" />
    <path d="M47.0909 26.1816H43.4545C42.952 26.1816 42.5454 26.5883 42.5454 27.0908C42.5454 27.5933 42.952 27.9999 43.4545 27.9999H47.0909C47.5934 27.9999 48 27.5933 48 27.0908C47.9999 26.5883 47.5934 26.1816 47.0909 26.1816Z" fill="#FFEA00" />
    <path d="M27.9999 40.7271C27.4974 40.7271 27.0908 41.1337 27.0908 41.6362V47.0907C27.0908 47.5932 27.4974 47.9998 27.9999 47.9998C28.5024 47.9998 28.9091 47.5932 28.9091 47.0907V41.6362C28.909 41.1337 28.5024 40.7271 27.9999 40.7271Z" fill="#FFEA00" />
    <defs>
      <filter id="filter0_f_37_205" x="0" y="0" width="56" height="55.9998" filterUnits="userSpaceOnUse" color-interpolation-filters="sRGB">
        <feFlood flood-opacity="0" result="BackgroundImageFix" />
        <feBlend mode="normal" in="SourceGraphic" in2="BackgroundImageFix" result="shape" />
        <feGaussianBlur stdDeviation="4" result="effect1_foregroundBlur_37_205" />
      </filter>
    </defs>
  </symbol>
  <symbol id="shoes" viewBox="0 0 56 40" fill="none">
    <g filter="url(#filter0_f_37_257)">
      <path d="M8.19223 26.1068L9.48933 23.143C9.0427 19.6885 9.7873 16.1286 11.7228 12.5559C12.0572 11.938 12.8921 11.6898 13.5128 12.0224L14.0184 12.2907C15.6002 13.149 16.8115 13.3306 18.5121 12.9616C20.048 12.6343 21.4001 11.5581 22.1292 10.083C22.4513 9.43128 23.3226 9.15245 23.9547 9.50257C25.1412 10.1606 26.2564 10.9221 27.3919 11.7781C27.4054 11.7884 27.4218 11.7919 27.4346 11.8034C27.4399 11.8083 27.4417 11.8151 27.4468 11.8201C28.2566 12.4325 29.0756 13.0857 29.9472 13.8134C32.1221 15.638 34.6523 16.9198 37.2668 17.5207C38.5802 17.8272 39.9255 17.9619 41.3235 17.9203C41.7708 17.9089 42.2253 17.8279 42.7065 17.742C43.3682 17.6238 44.0583 17.5016 44.7835 17.5559C46.0409 17.6541 47.4923 18.4249 47.9009 19.9274C48.0016 20.3018 48.0226 20.7023 47.9766 21.1079C47.9763 21.1111 47.978 21.114 47.9777 21.1172C47.8609 22.6255 47.6016 23.7661 47.1855 24.6032C45.5347 27.9328 41.9849 29.0354 38.7881 29.8074C36.4836 30.3683 34.1389 30.6497 31.7883 30.6497C30.8741 30.6497 29.9589 30.6071 29.0453 30.5219C27.8116 30.4123 26.5854 30.2011 25.3998 29.9968C23.3518 29.6438 21.4163 29.309 19.4109 29.4447C18.5936 29.5026 17.7594 29.6243 16.9526 29.742C16.3312 29.8327 15.7105 29.9232 15.0907 29.9883C13.2254 30.1922 11.7585 30.0865 10.4776 29.6548C9.7563 29.4183 9.18505 29.0695 8.62184 28.5213C7.99507 27.903 7.82329 26.9309 8.19223 26.1068ZM46.2743 22.0368C46.6273 21.4541 46.7542 20.7949 46.6147 20.2751C46.3778 19.4051 45.4457 18.9444 44.6815 18.8846C44.5936 18.8781 44.5055 18.8748 44.418 18.8748C43.9427 18.8748 43.4559 18.9616 42.9409 19.0538C42.432 19.1446 41.9057 19.2386 41.3603 19.2523C39.8764 19.2972 38.3896 19.1511 36.9662 18.8192C35.665 18.52 34.3861 18.0584 33.1539 17.4623C32.6979 18.0291 32.1782 18.5729 31.5978 19.0814C31.4712 19.1924 31.3147 19.2467 31.1589 19.2467C30.9734 19.2467 30.7893 19.17 30.6575 19.0197C30.4148 18.7428 30.4428 18.3218 30.7193 18.0794C31.1724 17.6823 31.5682 17.2579 31.9358 16.8233C31.2929 16.4532 30.6675 16.0435 30.063 15.5971C29.4443 16.1461 28.7762 16.6438 28.0291 17.1026C27.9201 17.1693 27.7997 17.2013 27.681 17.2013C27.4571 17.2013 27.2382 17.0884 27.1126 16.8837C26.92 16.57 27.018 16.1598 27.3316 15.9673C27.9394 15.594 28.489 15.1948 28.9992 14.7595C28.3221 14.1952 27.6781 13.68 27.0452 13.1899C26.4329 13.7888 25.7386 14.3287 24.9657 14.7937C24.858 14.8584 24.7395 14.889 24.6227 14.889C24.3966 14.889 24.176 14.7742 24.0511 14.5663C23.8614 14.2507 23.9632 13.8415 24.2785 13.6517C24.9014 13.2772 25.4667 12.8501 25.9694 12.3797C25.0945 11.7473 24.2279 11.176 23.3239 10.6732C22.4159 12.5107 20.7209 13.8534 18.7922 14.2644C16.7911 14.6983 15.2356 14.4674 13.3837 13.4624L12.8947 13.1907C11.1072 16.49 10.4009 19.7581 10.7936 22.9107C11.4209 23.2712 12.2118 23.4703 13.1488 23.5028C13.9079 23.5298 14.6539 23.4497 15.4506 23.3674C15.7408 23.3375 16.031 23.3072 16.3229 23.2822C19.2621 23.0352 22.4439 23.2913 26.1857 24.0838C27.1936 24.2976 28.1983 24.5598 29.1698 24.8136C31.2152 25.3478 33.1475 25.8524 35.1743 25.9647C35.5404 25.9855 35.908 25.9962 36.2753 25.9962C39.0358 25.9962 41.5455 25.41 43.7358 24.2534C44.9 23.642 45.7541 22.8963 46.2743 22.0368ZM9.55477 27.5692C9.96728 27.971 10.3675 28.216 10.8981 28.39C11.9938 28.759 13.2806 28.8468 14.9483 28.663C15.5538 28.5995 16.1566 28.5114 16.7604 28.4232C17.591 28.3019 18.4503 28.1766 19.3193 28.1151C21.4874 27.9706 23.5907 28.3327 25.6264 28.6834C26.7853 28.8829 27.9839 29.0895 29.1661 29.1946C32.2842 29.4864 35.416 29.2564 38.4742 28.512C41.2882 27.8325 44.138 26.9628 45.653 24.6014C45.2588 24.8975 44.8369 25.18 44.3564 25.4323C41.974 26.6908 39.2551 27.3288 36.2752 27.3288C35.8828 27.3288 35.4902 27.3174 35.0998 27.2953C32.9398 27.1756 30.8521 26.6303 28.833 26.1029C27.8762 25.853 26.8868 25.5947 25.9095 25.3874C22.2975 24.6225 19.2367 24.3756 16.4358 24.6099C16.1527 24.6343 15.8703 24.6636 15.588 24.6929C14.7834 24.7759 13.9551 24.8617 13.1039 24.8348C12.0982 24.7995 11.2151 24.5981 10.4643 24.2386L9.41063 26.6463C9.27008 26.9602 9.33192 27.3499 9.55477 27.5692Z" fill="#FFEA00" />
    </g>
    <path d="M8.19223 26.1068L9.48933 23.143C9.0427 19.6885 9.7873 16.1286 11.7228 12.5559C12.0572 11.938 12.8921 11.6898 13.5128 12.0224L14.0184 12.2907C15.6002 13.149 16.8115 13.3306 18.5121 12.9616C20.048 12.6343 21.4001 11.5581 22.1292 10.083C22.4513 9.43128 23.3226 9.15245 23.9547 9.50257C25.1412 10.1606 26.2564 10.9221 27.3919 11.7781C27.4054 11.7884 27.4218 11.7919 27.4346 11.8034C27.4399 11.8083 27.4417 11.8151 27.4468 11.8201C28.2566 12.4325 29.0756 13.0857 29.9472 13.8134C32.1221 15.638 34.6523 16.9198 37.2668 17.5207C38.5802 17.8272 39.9255 17.9619 41.3235 17.9203C41.7708 17.9089 42.2253 17.8279 42.7065 17.742C43.3682 17.6238 44.0583 17.5016 44.7835 17.5559C46.0409 17.6541 47.4923 18.4249 47.9009 19.9274C48.0016 20.3018 48.0226 20.7023 47.9766 21.1079C47.9763 21.1111 47.978 21.114 47.9777 21.1172C47.8609 22.6255 47.6016 23.7661 47.1855 24.6032C45.5347 27.9328 41.9849 29.0354 38.7881 29.8074C36.4836 30.3683 34.1389 30.6497 31.7883 30.6497C30.8741 30.6497 29.9589 30.6071 29.0453 30.5219C27.8116 30.4123 26.5854 30.2011 25.3998 29.9968C23.3518 29.6438 21.4163 29.309 19.4109 29.4447C18.5936 29.5026 17.7594 29.6243 16.9526 29.742C16.3312 29.8327 15.7105 29.9232 15.0907 29.9883C13.2254 30.1922 11.7585 30.0865 10.4776 29.6548C9.7563 29.4183 9.18505 29.0695 8.62184 28.5213C7.99507 27.903 7.82329 26.9309 8.19223 26.1068ZM46.2743 22.0368C46.6273 21.4541 46.7542 20.7949 46.6147 20.2751C46.3778 19.4051 45.4457 18.9444 44.6815 18.8846C44.5936 18.8781 44.5055 18.8748 44.418 18.8748C43.9427 18.8748 43.4559 18.9616 42.9409 19.0538C42.432 19.1446 41.9057 19.2386 41.3603 19.2523C39.8764 19.2972 38.3896 19.1511 36.9662 18.8192C35.665 18.52 34.3861 18.0584 33.1539 17.4623C32.6979 18.0291 32.1782 18.5729 31.5978 19.0814C31.4712 19.1924 31.3147 19.2467 31.1589 19.2467C30.9734 19.2467 30.7893 19.17 30.6575 19.0197C30.4148 18.7428 30.4428 18.3218 30.7193 18.0794C31.1724 17.6823 31.5682 17.2579 31.9358 16.8233C31.2929 16.4532 30.6675 16.0435 30.063 15.5971C29.4443 16.1461 28.7762 16.6438 28.0291 17.1026C27.9201 17.1693 27.7997 17.2013 27.681 17.2013C27.4571 17.2013 27.2382 17.0884 27.1126 16.8837C26.92 16.57 27.018 16.1598 27.3316 15.9673C27.9394 15.594 28.489 15.1948 28.9992 14.7595C28.3221 14.1952 27.6781 13.68 27.0452 13.1899C26.4329 13.7888 25.7386 14.3287 24.9657 14.7937C24.858 14.8584 24.7395 14.889 24.6227 14.889C24.3966 14.889 24.176 14.7742 24.0511 14.5663C23.8614 14.2507 23.9632 13.8415 24.2785 13.6517C24.9014 13.2772 25.4667 12.8501 25.9694 12.3797C25.0945 11.7473 24.2279 11.176 23.3239 10.6732C22.4159 12.5107 20.7209 13.8534 18.7922 14.2644C16.7911 14.6983 15.2356 14.4674 13.3837 13.4624L12.8947 13.1907C11.1072 16.49 10.4009 19.7581 10.7936 22.9107C11.4209 23.2712 12.2118 23.4703 13.1488 23.5028C13.9079 23.5298 14.6539 23.4497 15.4506 23.3674C15.7408 23.3375 16.031 23.3072 16.3229 23.2822C19.2621 23.0352 22.4439 23.2913 26.1857 24.0838C27.1936 24.2976 28.1983 24.5598 29.1698 24.8136C31.2152 25.3478 33.1475 25.8524 35.1743 25.9647C35.5404 25.9855 35.908 25.9962 36.2753 25.9962C39.0358 25.9962 41.5455 25.41 43.7358 24.2534C44.9 23.642 45.7541 22.8963 46.2743 22.0368ZM9.55477 27.5692C9.96728 27.971 10.3675 28.216 10.8981 28.39C11.9938 28.759 13.2806 28.8468 14.9483 28.663C15.5538 28.5995 16.1566 28.5114 16.7604 28.4232C17.591 28.3019 18.4503 28.1766 19.3193 28.1151C21.4874 27.9706 23.5907 28.3327 25.6264 28.6834C26.7853 28.8829 27.9839 29.0895 29.1661 29.1946C32.2842 29.4864 35.416 29.2564 38.4742 28.512C41.2882 27.8325 44.138 26.9628 45.653 24.6014C45.2588 24.8975 44.8369 25.18 44.3564 25.4323C41.974 26.6908 39.2551 27.3288 36.2752 27.3288C35.8828 27.3288 35.4902 27.3174 35.0998 27.2953C32.9398 27.1756 30.8521 26.6303 28.833 26.1029C27.8762 25.853 26.8868 25.5947 25.9095 25.3874C22.2975 24.6225 19.2367 24.3756 16.4358 24.6099C16.1527 24.6343 15.8703 24.6636 15.588 24.6929C14.7834 24.7759 13.9551 24.8617 13.1039 24.8348C12.0982 24.7995 11.2151 24.5981 10.4643 24.2386L9.41063 26.6463C9.27008 26.9602 9.33192 27.3499 9.55477 27.5692Z" fill="#FFEA00" />
    <defs>
      <filter id="filter0_f_37_257" x="0" y="1.35034" width="55.9998" height="37.2993" filterUnits="userSpaceOnUse" color-interpolation-filters="sRGB">
        <feFlood flood-opacity="0" result="BackgroundImageFix" />
        <feBlend mode="normal" in="SourceGraphic" in2="BackgroundImageFix" result="shape" />
        <feGaussianBlur stdDeviation="4" result="effect1_foregroundBlur_37_257" />
      </filter>
    </defs>
  </symbol>
  <symbol id="material" viewBox="0 0 56 56" fill="none">
    <g filter="url(#filter0_f_37_265)">
      <path d="M47.9231 44.3548L46.7532 42.1272L47.9231 39.8996C48.0253 39.7053 48.0253 39.4732 47.9231 39.2788L46.7532 37.0559L47.9231 34.8335C48.0253 34.6392 48.0253 34.4067 47.9231 34.2125L46.7532 31.9904L47.9231 29.7675C48.0253 29.5732 48.0253 29.3407 47.9231 29.1464L46.7532 26.9237L47.9231 24.7011C48.0253 24.5068 48.0253 24.2743 47.9231 24.08L46.7532 21.8583L47.9231 19.6382C48.0592 19.379 48.011 19.0617 47.804 18.8553L45.1354 16.1945C44.9284 15.9881 44.612 15.9406 44.3548 16.0763L42.1269 17.2469L39.9999 16.1293V8.66664C39.9999 8.29844 39.7017 8 39.3333 8H8.66664C8.2982 8 8 8.29852 8 8.66664V39.3332C8 39.7014 8.2982 39.9999 8.66664 39.9999H16.1229L17.2467 42.134L16.0768 44.3541C15.9407 44.6125 15.9883 44.9289 16.1946 45.1356L18.8554 47.8039C18.9837 47.9325 19.1542 47.9998 19.3274 47.9998C19.4329 47.9998 19.5397 47.9748 19.6373 47.9234L21.8652 46.7528L24.0924 47.9234C24.2864 48.0255 24.5188 48.0252 24.7129 47.923L26.9361 46.7528L29.1588 47.923C29.3528 48.0252 29.5859 48.0252 29.7799 47.923L32.0019 46.7531L34.2246 47.923C34.4185 48.0252 34.6517 48.0252 34.8457 47.923L37.0683 46.7528L39.291 47.923C39.4849 48.0252 39.7181 48.0252 39.912 47.923L42.1334 46.7531L44.3541 47.923C44.6106 48.0591 44.9289 48.0116 45.1359 47.8045L47.8045 45.1363C48.011 44.9299 48.0591 44.6132 47.9231 44.3548ZM16.0769 24.7132L17.2468 26.9361L16.0769 29.1588C15.9747 29.3531 15.9747 29.5856 16.0769 29.7799L17.2468 32.0019L16.0769 34.2246C15.9747 34.4189 15.9747 34.6514 16.0769 34.8457L17.2468 37.0686L16.4057 38.6666H9.33336V9.33336H38.6667V16.399L37.056 17.2471L34.8333 16.0769C34.6393 15.9747 34.4062 15.9747 34.2122 16.0769L31.9902 17.2468L29.7675 16.0769C29.5736 15.9747 29.3404 15.9747 29.1464 16.0769L26.9238 17.2471L24.7011 16.0769C24.5072 15.9747 24.274 15.9747 24.08 16.0769L21.858 17.2468L19.6379 16.0769C19.3821 15.9408 19.0631 15.988 18.8561 16.1954L16.1953 18.8562C15.9889 19.0626 15.9408 19.3793 16.0768 19.6377L17.2467 21.8649L16.0768 24.0925C15.9746 24.2868 15.9746 24.5189 16.0769 24.7132ZM45.4101 27.2343L46.58 29.457L45.4101 31.68C45.3079 31.8743 45.3079 32.1068 45.4101 32.301L46.58 34.5231L45.4101 36.7454C45.3079 36.9397 45.3079 37.1722 45.4101 37.3665L46.58 39.5898L45.4101 41.817C45.3079 42.0113 45.3079 42.2431 45.4101 42.4374L46.5149 44.5406L44.5409 46.5146L42.4439 45.4098C42.2499 45.3076 42.0168 45.3076 41.8228 45.4098L39.6015 46.5797L37.3788 45.4098C37.1849 45.3076 36.9517 45.3076 36.7578 45.4098L34.5351 46.58L32.3125 45.4098C32.1185 45.3076 31.8853 45.3076 31.6914 45.4098L29.4693 46.5797L27.2467 45.4098C27.0527 45.3076 26.8196 45.3076 26.6256 45.4098L24.4023 46.58L22.1751 45.4095C22.0781 45.3584 21.972 45.333 21.8652 45.333C21.7584 45.333 21.6523 45.3584 21.5553 45.4095L19.4524 46.5146L17.485 44.5416L18.5898 42.445C18.692 42.2503 18.692 42.0179 18.5898 41.8236L17.4199 39.6019L18.5898 37.3792C18.692 37.1849 18.692 36.9524 18.5898 36.7581L17.4199 34.5352L18.5898 32.3125C18.692 32.1182 18.692 31.8857 18.5898 31.6914L17.4199 29.4694L18.5898 27.2468C18.692 27.0525 18.692 26.82 18.5898 26.6257L17.4199 24.4024L18.5898 22.1752C18.692 21.9809 18.692 21.7491 18.5898 21.5547L17.485 19.4519L19.4511 17.4857L21.5475 18.5902C21.7415 18.6924 21.9746 18.6924 22.1686 18.5902L24.3906 17.4203L26.6132 18.5902C26.8072 18.6924 27.0404 18.6924 27.2343 18.5902L29.457 17.42L31.6796 18.5902C31.8736 18.6924 32.1068 18.6924 32.3007 18.5902L34.5228 17.4203L36.7454 18.5902C36.9394 18.6924 37.1725 18.6924 37.3665 18.5902L39.5892 17.42L41.817 18.5905C42.011 18.6927 42.2428 18.6927 42.4368 18.5905L44.5409 17.4847L46.5142 19.4522L45.4101 21.5476C45.3079 21.7422 45.3079 21.9747 45.4101 22.169L46.58 24.3907L45.4101 26.6133C45.3079 26.8075 45.3079 27.04 45.4101 27.2343Z" fill="#FFEA00" />
    </g>
    <path d="M47.9231 44.3548L46.7532 42.1272L47.9231 39.8996C48.0253 39.7053 48.0253 39.4732 47.9231 39.2788L46.7532 37.0559L47.9231 34.8335C48.0253 34.6392 48.0253 34.4067 47.9231 34.2125L46.7532 31.9904L47.9231 29.7675C48.0253 29.5732 48.0253 29.3407 47.9231 29.1464L46.7532 26.9237L47.9231 24.7011C48.0253 24.5068 48.0253 24.2743 47.9231 24.08L46.7532 21.8583L47.9231 19.6382C48.0592 19.379 48.011 19.0617 47.804 18.8553L45.1354 16.1945C44.9284 15.9881 44.612 15.9406 44.3548 16.0763L42.1269 17.2469L39.9999 16.1293V8.66664C39.9999 8.29844 39.7017 8 39.3333 8H8.66664C8.2982 8 8 8.29852 8 8.66664V39.3332C8 39.7014 8.2982 39.9999 8.66664 39.9999H16.1229L17.2467 42.134L16.0768 44.3541C15.9407 44.6125 15.9883 44.9289 16.1946 45.1356L18.8554 47.8039C18.9837 47.9325 19.1542 47.9998 19.3274 47.9998C19.4329 47.9998 19.5397 47.9748 19.6373 47.9234L21.8652 46.7528L24.0924 47.9234C24.2864 48.0255 24.5188 48.0252 24.7129 47.923L26.9361 46.7528L29.1588 47.923C29.3528 48.0252 29.5859 48.0252 29.7799 47.923L32.0019 46.7531L34.2246 47.923C34.4185 48.0252 34.6517 48.0252 34.8457 47.923L37.0683 46.7528L39.291 47.923C39.4849 48.0252 39.7181 48.0252 39.912 47.923L42.1334 46.7531L44.3541 47.923C44.6106 48.0591 44.9289 48.0116 45.1359 47.8045L47.8045 45.1363C48.011 44.9299 48.0591 44.6132 47.9231 44.3548ZM16.0769 24.7132L17.2468 26.9361L16.0769 29.1588C15.9747 29.3531 15.9747 29.5856 16.0769 29.7799L17.2468 32.0019L16.0769 34.2246C15.9747 34.4189 15.9747 34.6514 16.0769 34.8457L17.2468 37.0686L16.4057 38.6666H9.33336V9.33336H38.6667V16.399L37.056 17.2471L34.8333 16.0769C34.6393 15.9747 34.4062 15.9747 34.2122 16.0769L31.9902 17.2468L29.7675 16.0769C29.5736 15.9747 29.3404 15.9747 29.1464 16.0769L26.9238 17.2471L24.7011 16.0769C24.5072 15.9747 24.274 15.9747 24.08 16.0769L21.858 17.2468L19.6379 16.0769C19.3821 15.9408 19.0631 15.988 18.8561 16.1954L16.1953 18.8562C15.9889 19.0626 15.9408 19.3793 16.0768 19.6377L17.2467 21.8649L16.0768 24.0925C15.9746 24.2868 15.9746 24.5189 16.0769 24.7132ZM45.4101 27.2343L46.58 29.457L45.4101 31.68C45.3079 31.8743 45.3079 32.1068 45.4101 32.301L46.58 34.5231L45.4101 36.7454C45.3079 36.9397 45.3079 37.1722 45.4101 37.3665L46.58 39.5898L45.4101 41.817C45.3079 42.0113 45.3079 42.2431 45.4101 42.4374L46.5149 44.5406L44.5409 46.5146L42.4439 45.4098C42.2499 45.3076 42.0168 45.3076 41.8228 45.4098L39.6015 46.5797L37.3788 45.4098C37.1849 45.3076 36.9517 45.3076 36.7578 45.4098L34.5351 46.58L32.3125 45.4098C32.1185 45.3076 31.8853 45.3076 31.6914 45.4098L29.4693 46.5797L27.2467 45.4098C27.0527 45.3076 26.8196 45.3076 26.6256 45.4098L24.4023 46.58L22.1751 45.4095C22.0781 45.3584 21.972 45.333 21.8652 45.333C21.7584 45.333 21.6523 45.3584 21.5553 45.4095L19.4524 46.5146L17.485 44.5416L18.5898 42.445C18.692 42.2503 18.692 42.0179 18.5898 41.8236L17.4199 39.6019L18.5898 37.3792C18.692 37.1849 18.692 36.9524 18.5898 36.7581L17.4199 34.5352L18.5898 32.3125C18.692 32.1182 18.692 31.8857 18.5898 31.6914L17.4199 29.4694L18.5898 27.2468C18.692 27.0525 18.692 26.82 18.5898 26.6257L17.4199 24.4024L18.5898 22.1752C18.692 21.9809 18.692 21.7491 18.5898 21.5547L17.485 19.4519L19.4511 17.4857L21.5475 18.5902C21.7415 18.6924 21.9746 18.6924 22.1686 18.5902L24.3906 17.4203L26.6132 18.5902C26.8072 18.6924 27.0404 18.6924 27.2343 18.5902L29.457 17.42L31.6796 18.5902C31.8736 18.6924 32.1068 18.6924 32.3007 18.5902L34.5228 17.4203L36.7454 18.5902C36.9394 18.6924 37.1725 18.6924 37.3665 18.5902L39.5892 17.42L41.817 18.5905C42.011 18.6927 42.2428 18.6927 42.4368 18.5905L44.5409 17.4847L46.5142 19.4522L45.4101 21.5476C45.3079 21.7422 45.3079 21.9747 45.4101 22.169L46.58 24.3907L45.4101 26.6133C45.3079 26.8075 45.3079 27.04 45.4101 27.2343Z" fill="#FFEA00" />
    <defs>
      <filter id="filter0_f_37_265" x="0" y="0" width="55.9998" height="56" filterUnits="userSpaceOnUse" color-interpolation-filters="sRGB">
        <feFlood flood-opacity="0" result="BackgroundImageFix" />
        <feBlend mode="normal" in="SourceGraphic" in2="BackgroundImageFix" result="shape" />
        <feGaussianBlur stdDeviation="4" result="effect1_foregroundBlur_37_265" />
      </filter>
    </defs>
  </symbol>
  <symbol id="sports" viewBox="0 0 56 57" fill="none">
    <g filter="url(#filter0_f_37_278)">
      <path d="M42.6315 18.7563C45.5963 18.7563 48.0001 16.3485 48.0001 13.3782C48.0001 10.4081 45.5963 8 42.6315 8C39.6664 8 37.2629 10.4081 37.2629 13.3782C37.2662 16.3472 39.6677 18.753 42.6315 18.7563ZM42.6315 9.34454C44.8551 9.34454 46.658 11.1506 46.658 13.3782C46.658 15.606 44.8551 17.4118 42.6315 17.4118C40.4076 17.4118 38.6051 15.606 38.6051 13.3782C38.6071 11.1516 40.4086 9.34684 42.6315 9.34454Z" fill="#FFEA00" />
      <path d="M19.719 23.7409C20.5041 23.7422 21.2577 23.4303 21.8128 22.8736L27.8679 16.8071L31.9098 20.8562C33.0658 22.0142 34.9397 22.0142 36.0958 20.8562L36.1 20.8522C37.2528 19.6935 37.2528 17.8188 36.1 16.6601L30.2399 10.7912C28.9299 9.47879 26.8059 9.47879 25.4955 10.7912L17.6225 18.6775C16.7765 19.5264 16.5242 20.8023 16.9829 21.9105C17.442 23.0184 18.5213 23.7409 19.719 23.7409ZM18.5715 19.6308L26.4445 11.7415C27.2306 10.9543 28.5049 10.9543 29.2913 11.7415L35.1511 17.614C35.7809 18.2472 35.7809 19.2717 35.1511 19.9049L35.1468 19.9091C34.5144 20.5407 33.4911 20.5407 32.8587 19.9091L28.3424 15.3841C28.0802 15.1215 27.6556 15.1215 27.3934 15.3841L20.8632 21.923C20.222 22.5378 19.2104 22.5362 18.5715 21.9191C17.9433 21.2862 17.9433 20.2637 18.5715 19.6308Z" fill="#FFEA00" />
      <path d="M45.3157 25.4791H38.6049V22.1178C38.6049 21.846 38.4414 21.6011 38.1904 21.497C37.9398 21.393 37.6511 21.4504 37.4594 21.6424L33.4329 25.6761C33.3071 25.8021 33.2363 25.9731 33.2363 26.1514V28.8404C33.2363 29.9545 34.1374 30.8573 35.2496 30.8573H45.3157C46.7981 30.8573 48 29.6535 48 28.1682C48 26.6831 46.7981 25.4791 45.3157 25.4791ZM45.3157 29.5127H35.2496C34.879 29.5127 34.5785 29.2117 34.5785 28.8404V26.4297L37.2628 23.7407V26.1514C37.2628 26.5226 37.5633 26.8236 37.9339 26.8236H45.3157C46.0569 26.8236 46.6578 27.4257 46.6578 28.1682C46.6578 28.911 46.0569 29.5127 45.3157 29.5127Z" fill="#FFEA00" />
      <path d="M25.001 34.2859L21.761 31.0401C21.4946 30.788 21.0781 30.788 20.812 31.0401L8.86702 43.0067C7.71099 44.1645 7.71099 46.0418 8.86702 47.1996V47.2028C10.0234 48.3593 11.896 48.3593 13.0524 47.2028L24.9974 35.2366C25.2605 34.975 25.2618 34.5495 25.001 34.2859ZM12.1054 46.2525C11.4737 46.8841 10.4503 46.8841 9.81859 46.2525H9.81597C9.18388 45.62 9.18388 44.5939 9.81597 43.9613L21.2859 32.4661L23.5769 34.7619L12.1054 46.2525Z" fill="#FFEA00" />
      <path d="M28.493 27.2863C27.7485 26.5182 26.6481 26.2113 25.6143 26.4831C24.5802 26.7552 23.7728 27.564 23.5008 28.6C23.2292 29.6356 23.5352 30.7379 24.3023 31.484L29.5454 36.7352L23.1876 40.1293C21.7737 40.9385 21.2802 42.7416 22.085 44.1597L22.1803 44.3359C22.7125 45.258 23.6952 45.8259 24.7585 45.8256C25.2667 45.8262 25.7661 45.6933 26.2068 45.4399L34.4838 40.9805L35.5576 40.3627C36.4643 39.8424 37.0773 38.9282 37.2156 37.8903C37.3536 36.8527 37.001 35.8095 36.2621 35.0693L28.493 27.2863ZM35.8849 37.7147C35.8033 38.3364 35.4354 38.8839 34.8911 39.1938L25.5544 44.264C24.784 44.7062 23.8016 44.4459 23.3508 43.6798L23.2548 43.5035C22.8154 42.7354 23.0736 41.7562 23.8344 41.3058L30.9754 37.4947C31.1632 37.3946 31.2923 37.2111 31.3234 37.0004C31.3545 36.7897 31.2844 36.5766 31.1337 36.4259L25.2506 30.5334C24.6172 29.8989 24.6172 28.8701 25.2506 28.2356C25.884 27.6011 26.9109 27.6011 27.5443 28.2356L35.3168 36.0199C35.7617 36.4637 35.9721 37.0916 35.8849 37.7147Z" fill="#FFEA00" />
    </g>
    <path d="M42.6315 18.7563C45.5963 18.7563 48.0001 16.3485 48.0001 13.3782C48.0001 10.4081 45.5963 8 42.6315 8C39.6664 8 37.2629 10.4081 37.2629 13.3782C37.2662 16.3472 39.6677 18.753 42.6315 18.7563ZM42.6315 9.34454C44.8551 9.34454 46.658 11.1506 46.658 13.3782C46.658 15.606 44.8551 17.4118 42.6315 17.4118C40.4076 17.4118 38.6051 15.606 38.6051 13.3782C38.6071 11.1516 40.4086 9.34684 42.6315 9.34454Z" fill="#FFEA00" />
    <path d="M19.719 23.7409C20.5041 23.7422 21.2577 23.4303 21.8128 22.8736L27.8679 16.8071L31.9098 20.8562C33.0658 22.0142 34.9397 22.0142 36.0958 20.8562L36.1 20.8522C37.2528 19.6935 37.2528 17.8188 36.1 16.6601L30.2399 10.7912C28.9299 9.47879 26.8059 9.47879 25.4955 10.7912L17.6225 18.6775C16.7765 19.5264 16.5242 20.8023 16.9829 21.9105C17.442 23.0184 18.5213 23.7409 19.719 23.7409ZM18.5715 19.6308L26.4445 11.7415C27.2306 10.9543 28.5049 10.9543 29.2913 11.7415L35.1511 17.614C35.7809 18.2472 35.7809 19.2717 35.1511 19.9049L35.1468 19.9091C34.5144 20.5407 33.4911 20.5407 32.8587 19.9091L28.3424 15.3841C28.0802 15.1215 27.6556 15.1215 27.3934 15.3841L20.8632 21.923C20.222 22.5378 19.2104 22.5362 18.5715 21.9191C17.9433 21.2862 17.9433 20.2637 18.5715 19.6308Z" fill="#FFEA00" />
    <path d="M45.3157 25.4791H38.6049V22.1178C38.6049 21.846 38.4414 21.6011 38.1904 21.497C37.9398 21.393 37.6511 21.4504 37.4594 21.6424L33.4329 25.6761C33.3071 25.8021 33.2363 25.9731 33.2363 26.1514V28.8404C33.2363 29.9545 34.1374 30.8573 35.2496 30.8573H45.3157C46.7981 30.8573 48 29.6535 48 28.1682C48 26.6831 46.7981 25.4791 45.3157 25.4791ZM45.3157 29.5127H35.2496C34.879 29.5127 34.5785 29.2117 34.5785 28.8404V26.4297L37.2628 23.7407V26.1514C37.2628 26.5226 37.5633 26.8236 37.9339 26.8236H45.3157C46.0569 26.8236 46.6578 27.4257 46.6578 28.1682C46.6578 28.911 46.0569 29.5127 45.3157 29.5127Z" fill="#FFEA00" />
    <path d="M25.001 34.2859L21.761 31.0401C21.4946 30.788 21.0781 30.788 20.812 31.0401L8.86702 43.0067C7.71099 44.1645 7.71099 46.0418 8.86702 47.1996V47.2028C10.0234 48.3593 11.896 48.3593 13.0524 47.2028L24.9974 35.2366C25.2605 34.975 25.2618 34.5495 25.001 34.2859ZM12.1054 46.2525C11.4737 46.8841 10.4503 46.8841 9.81859 46.2525H9.81597C9.18388 45.62 9.18388 44.5939 9.81597 43.9613L21.2859 32.4661L23.5769 34.7619L12.1054 46.2525Z" fill="#FFEA00" />
    <path d="M28.493 27.2863C27.7485 26.5182 26.6481 26.2113 25.6143 26.4831C24.5802 26.7552 23.7728 27.564 23.5008 28.6C23.2292 29.6356 23.5352 30.7379 24.3023 31.484L29.5454 36.7352L23.1876 40.1293C21.7737 40.9385 21.2802 42.7416 22.085 44.1597L22.1803 44.3359C22.7125 45.258 23.6952 45.8259 24.7585 45.8256C25.2667 45.8262 25.7661 45.6933 26.2068 45.4399L34.4838 40.9805L35.5576 40.3627C36.4643 39.8424 37.0773 38.9282 37.2156 37.8903C37.3536 36.8527 37.001 35.8095 36.2621 35.0693L28.493 27.2863ZM35.8849 37.7147C35.8033 38.3364 35.4354 38.8839 34.8911 39.1938L25.5544 44.264C24.784 44.7062 23.8016 44.4459 23.3508 43.6798L23.2548 43.5035C22.8154 42.7354 23.0736 41.7562 23.8344 41.3058L30.9754 37.4947C31.1632 37.3946 31.2923 37.2111 31.3234 37.0004C31.3545 36.7897 31.2844 36.5766 31.1337 36.4259L25.2506 30.5334C24.6172 29.8989 24.6172 28.8701 25.2506 28.2356C25.884 27.6011 26.9109 27.6011 27.5443 28.2356L35.3168 36.0199C35.7617 36.4637 35.9721 37.0916 35.8849 37.7147Z" fill="#FFEA00" />
    <defs>
      <filter id="filter0_f_37_278" x="0" y="0" width="56.0002" height="56.0701" filterUnits="userSpaceOnUse" color-interpolation-filters="sRGB">
        <feFlood flood-opacity="0" result="BackgroundImageFix" />
        <feBlend mode="normal" in="SourceGraphic" in2="BackgroundImageFix" result="shape" />
        <feGaussianBlur stdDeviation="4" result="effect1_foregroundBlur_37_278" />
      </filter>
    </defs>
  </symbol>
  <symbol id="diamond" viewBox="0 0 56 52" fill="none">
    <g filter="url(#filter0_f_37_292)">
      <path d="M47.9906 19.4507C47.9953 19.4233 47.9979 19.3967 47.9993 19.3687C48.0006 19.336 47.9999 19.3046 47.9973 19.272C47.9946 19.244 47.9906 19.2173 47.9839 19.1899C47.9766 19.1579 47.9666 19.1273 47.9546 19.0966C47.9486 19.0806 47.9473 19.0639 47.9399 19.0486C47.9346 19.0372 47.9253 19.0286 47.9193 19.0172C47.9133 19.0059 47.9106 18.9939 47.9039 18.9826L41.2357 8.31341C41.205 8.26473 41.169 8.22072 41.1283 8.18204L41.1263 8.18071C41.069 8.1267 41.001 8.08802 40.9283 8.05735C40.919 8.05335 40.913 8.04534 40.903 8.04134C40.8956 8.03868 40.8876 8.04001 40.8803 8.03801C40.8129 8.01534 40.7436 8 40.6709 8H15.3317C15.2596 8 15.191 8.01534 15.1249 8.03734C15.1176 8.03934 15.1103 8.03801 15.1036 8.04068C15.0936 8.04401 15.0876 8.05201 15.0783 8.05601C15.0089 8.08469 14.9436 8.12203 14.8869 8.17271C14.8835 8.17604 14.8789 8.17804 14.8755 8.18071C14.8342 8.21938 14.7975 8.26406 14.7669 8.31274L8.09863 18.9819C8.09196 18.9926 8.08929 19.0052 8.08329 19.0166C8.07729 19.0279 8.06796 19.0366 8.06262 19.0479C8.05529 19.0632 8.05395 19.0799 8.04728 19.0959C8.03528 19.1266 8.02528 19.1573 8.01794 19.1893C8.01194 19.2166 8.00727 19.244 8.00461 19.272C7.99994 19.3046 7.99927 19.3366 8.00061 19.3687C8.00194 19.3967 8.00461 19.4233 8.00928 19.4507C8.01461 19.4827 8.02328 19.514 8.03395 19.5454C8.04262 19.5714 8.05195 19.5967 8.06395 19.622C8.06996 19.634 8.07196 19.6474 8.07862 19.6594C8.08929 19.6787 8.1053 19.6934 8.1173 19.7114C8.12664 19.7254 8.13197 19.7407 8.14331 19.7541L27.4738 43.7503C27.4752 43.7523 27.4765 43.7537 27.4778 43.755L27.4812 43.7597C27.4832 43.7623 27.4865 43.763 27.4885 43.7657C27.5432 43.8317 27.6112 43.8817 27.6852 43.9217C27.7052 43.9324 27.7239 43.9417 27.7445 43.9504C27.8252 43.9844 27.9106 44.0084 27.9999 44.0084C28.076 44.0084 28.1526 43.9951 28.2287 43.9677C28.24 43.9637 28.2473 43.9544 28.2587 43.9497C28.2927 43.9357 28.3193 43.913 28.35 43.8937C28.4007 43.8617 28.448 43.8284 28.4874 43.785C28.4967 43.775 28.5107 43.7703 28.5194 43.7597L47.8572 19.7541C47.8679 19.7407 47.8732 19.7247 47.8832 19.7114C47.8959 19.6934 47.9113 19.6787 47.9219 19.6594C47.9286 19.6474 47.9306 19.634 47.9366 19.622C47.9486 19.5967 47.9579 19.572 47.9666 19.5454C47.9759 19.514 47.9853 19.4833 47.9906 19.4507ZM29.4016 9.33431H39.71L36.4692 18.033L29.4016 9.33431ZM35.2676 18.6698H20.7329L27.9999 9.72574L35.2676 18.6698ZM19.484 18.091L16.2839 9.33431H26.5989L19.484 18.091ZM35.7351 20.0035L27.8832 41.0791L20.1821 20.0035H35.7351ZM40.8216 10.1698L46.1342 18.6705H37.6549L40.8216 10.1698ZM15.1723 10.1785L18.275 18.6698H9.86571L15.1723 10.1785ZM18.7625 20.0035L25.9901 39.7841L10.0558 20.0035H18.7625ZM29.5983 40.2949L37.1581 20.0035H45.9441L29.5983 40.2949Z" fill="#FFEA00" />
    </g>
    <path d="M47.9906 19.4507C47.9953 19.4233 47.9979 19.3967 47.9993 19.3687C48.0006 19.336 47.9999 19.3046 47.9973 19.272C47.9946 19.244 47.9906 19.2173 47.9839 19.1899C47.9766 19.1579 47.9666 19.1273 47.9546 19.0966C47.9486 19.0806 47.9473 19.0639 47.9399 19.0486C47.9346 19.0372 47.9253 19.0286 47.9193 19.0172C47.9133 19.0059 47.9106 18.9939 47.9039 18.9826L41.2357 8.31341C41.205 8.26473 41.169 8.22072 41.1283 8.18204L41.1263 8.18071C41.069 8.1267 41.001 8.08802 40.9283 8.05735C40.919 8.05335 40.913 8.04534 40.903 8.04134C40.8956 8.03868 40.8876 8.04001 40.8803 8.03801C40.8129 8.01534 40.7436 8 40.6709 8H15.3317C15.2596 8 15.191 8.01534 15.1249 8.03734C15.1176 8.03934 15.1103 8.03801 15.1036 8.04068C15.0936 8.04401 15.0876 8.05201 15.0783 8.05601C15.0089 8.08469 14.9436 8.12203 14.8869 8.17271C14.8835 8.17604 14.8789 8.17804 14.8755 8.18071C14.8342 8.21938 14.7975 8.26406 14.7669 8.31274L8.09863 18.9819C8.09196 18.9926 8.08929 19.0052 8.08329 19.0166C8.07729 19.0279 8.06796 19.0366 8.06262 19.0479C8.05529 19.0632 8.05395 19.0799 8.04728 19.0959C8.03528 19.1266 8.02528 19.1573 8.01794 19.1893C8.01194 19.2166 8.00727 19.244 8.00461 19.272C7.99994 19.3046 7.99927 19.3366 8.00061 19.3687C8.00194 19.3967 8.00461 19.4233 8.00928 19.4507C8.01461 19.4827 8.02328 19.514 8.03395 19.5454C8.04262 19.5714 8.05195 19.5967 8.06395 19.622C8.06996 19.634 8.07196 19.6474 8.07862 19.6594C8.08929 19.6787 8.1053 19.6934 8.1173 19.7114C8.12664 19.7254 8.13197 19.7407 8.14331 19.7541L27.4738 43.7503C27.4752 43.7523 27.4765 43.7537 27.4778 43.755L27.4812 43.7597C27.4832 43.7623 27.4865 43.763 27.4885 43.7657C27.5432 43.8317 27.6112 43.8817 27.6852 43.9217C27.7052 43.9324 27.7239 43.9417 27.7445 43.9504C27.8252 43.9844 27.9106 44.0084 27.9999 44.0084C28.076 44.0084 28.1526 43.9951 28.2287 43.9677C28.24 43.9637 28.2473 43.9544 28.2587 43.9497C28.2927 43.9357 28.3193 43.913 28.35 43.8937C28.4007 43.8617 28.448 43.8284 28.4874 43.785C28.4967 43.775 28.5107 43.7703 28.5194 43.7597L47.8572 19.7541C47.8679 19.7407 47.8732 19.7247 47.8832 19.7114C47.8959 19.6934 47.9113 19.6787 47.9219 19.6594C47.9286 19.6474 47.9306 19.634 47.9366 19.622C47.9486 19.5967 47.9579 19.572 47.9666 19.5454C47.9759 19.514 47.9853 19.4833 47.9906 19.4507ZM29.4016 9.33431H39.71L36.4692 18.033L29.4016 9.33431ZM35.2676 18.6698H20.7329L27.9999 9.72574L35.2676 18.6698ZM19.484 18.091L16.2839 9.33431H26.5989L19.484 18.091ZM35.7351 20.0035L27.8832 41.0791L20.1821 20.0035H35.7351ZM40.8216 10.1698L46.1342 18.6705H37.6549L40.8216 10.1698ZM15.1723 10.1785L18.275 18.6698H9.86571L15.1723 10.1785ZM18.7625 20.0035L25.9901 39.7841L10.0558 20.0035H18.7625ZM29.5983 40.2949L37.1581 20.0035H45.9441L29.5983 40.2949Z" fill="#FFEA00" />
    <defs>
      <filter id="filter0_f_37_292" x="0" y="0" width="56" height="52.0083" filterUnits="userSpaceOnUse" color-interpolation-filters="sRGB">
        <feFlood flood-opacity="0" result="BackgroundImageFix" />
        <feBlend mode="normal" in="SourceGraphic" in2="BackgroundImageFix" result="shape" />
        <feGaussianBlur stdDeviation="4" result="effect1_foregroundBlur_37_292" />
      </filter>
    </defs>
  </symbol>
  <symbol id="boom" viewBox="0 0 56 56" fill="none">
    <g filter="url(#filter0_f_38_296)">
      <path d="M9.83937 27.4128H8.58708C8.26286 27.4128 8 27.6757 8 27.9999C8 28.3242 8.26286 28.587 8.58708 28.587H9.83937C10.1636 28.587 10.4265 28.3242 10.4265 27.9999C10.4265 27.6757 10.1636 27.4128 9.83937 27.4128Z" fill="#FFEA00" />
      <path d="M43.6555 27.413H32.3037C32.2798 27.2369 32.2461 27.0639 32.2016 26.8952L40.9529 23.2703C41.2525 23.1462 41.3948 22.8027 41.2707 22.5032C41.1466 22.2037 40.8031 22.0615 40.5036 22.1855L31.7504 25.8112C31.6614 25.6591 31.5637 25.5127 31.4573 25.3731L42.1422 14.6882C42.3715 14.4589 42.3715 14.0872 42.1422 13.858C41.913 13.6287 41.5412 13.6287 41.312 13.858L30.6271 24.5429C30.4875 24.4366 30.3411 24.3389 30.189 24.2498L33.8147 15.4966C33.9388 15.197 33.7966 14.8536 33.497 14.7295C33.1973 14.6055 32.854 14.7476 32.7299 15.0473L29.105 23.7986C28.9363 23.7541 28.7633 23.7204 28.5872 23.6965V12.3447C28.5872 12.0204 28.3244 11.7576 28.0002 11.7576C27.6759 11.7576 27.4131 12.0204 27.4131 12.3447V23.6964C27.2369 23.7203 27.064 23.754 26.8953 23.7985L23.2703 15.0472C23.1462 14.7476 22.8027 14.6054 22.5032 14.7295C22.2037 14.8535 22.0614 15.197 22.1855 15.4965L25.8112 24.2497C25.6591 24.3388 25.5127 24.4365 25.3731 24.5429L14.6882 13.8579C14.4589 13.6286 14.0872 13.6286 13.858 13.8579C13.6287 14.0872 13.6287 14.4589 13.858 14.6881L24.5429 25.3731C24.4366 25.5126 24.3389 25.659 24.2498 25.8111L15.4966 22.1855C15.1971 22.0615 14.8536 22.2037 14.7295 22.5032C14.6055 22.8028 14.7477 23.1462 15.0473 23.2703L23.7985 26.8952C23.7541 27.0639 23.7204 27.2369 23.6964 27.413H12.3447C12.0204 27.413 11.7576 27.6758 11.7576 28.0001C11.7576 28.3243 12.0204 28.5872 12.3447 28.5872H23.6964C23.7202 28.7632 23.754 28.9362 23.7984 29.105L15.0472 32.7299C14.7476 32.8539 14.6054 33.1974 14.7295 33.4969C14.8231 33.723 15.0417 33.8595 15.2721 33.8595C15.347 33.8595 15.4231 33.8451 15.4965 33.8146L24.2497 30.1889C24.3388 30.341 24.4365 30.4874 24.5429 30.6269L13.8579 41.3119C13.6286 41.5411 13.6286 41.9129 13.8579 42.1421C13.9725 42.2567 14.1228 42.314 14.273 42.314C14.4232 42.314 14.5735 42.2567 14.6881 42.1421L25.3731 31.4571C25.5126 31.5635 25.659 31.6612 25.8111 31.7503L22.1854 40.5035C22.0614 40.803 22.2036 41.1465 22.5032 41.2705C22.5767 41.301 22.6528 41.3154 22.7276 41.3154C22.958 41.3154 23.1766 41.1789 23.2702 40.9528L26.8951 32.2015C27.0639 32.2459 27.2368 32.2796 27.4129 32.3036V43.6553C27.4129 43.9796 27.6758 44.2424 28 44.2424C28.3242 44.2424 28.5871 43.9796 28.5871 43.6553V32.3037C28.7632 32.2798 28.9361 32.2461 29.1049 32.2016L32.7298 40.9529C32.8234 41.179 33.042 41.3155 33.2724 41.3155C33.3473 41.3155 33.4234 41.3011 33.4968 41.2707C33.7964 41.1466 33.9386 40.8031 33.8146 40.5036L30.1889 31.7504C30.341 31.6614 30.4874 31.5637 30.6269 31.4573L41.3119 42.1422C41.4265 42.2568 41.5767 42.3142 41.727 42.3142C41.8772 42.3142 42.0275 42.2569 42.1421 42.1422C42.3713 41.913 42.3713 41.5412 42.1421 41.312L31.4571 30.6271C31.5634 30.4875 31.6611 30.3411 31.7503 30.189L40.5035 33.8148C40.5769 33.8452 40.6531 33.8596 40.7279 33.8596C40.9583 33.8596 41.1769 33.7231 41.2705 33.4971C41.3946 33.1975 41.2524 32.8541 40.9528 32.73L32.2015 29.1051C32.2459 28.9364 32.2796 28.7634 32.3036 28.5873H43.6553C43.9796 28.5873 44.2424 28.3245 44.2424 28.0002C44.2424 27.676 43.9797 27.413 43.6555 27.413ZM28.0001 31.1703C26.252 31.1703 24.8298 29.7482 24.8298 28.0001C24.8298 26.252 26.252 24.8298 28.0001 24.8298C29.7482 24.8298 31.1703 26.252 31.1703 28.0001C31.1703 29.7482 29.7482 31.1703 28.0001 31.1703Z" fill="#FFEA00" />
      <path d="M47.413 27.4128H46.1608C45.8366 27.4128 45.5737 27.6757 45.5737 27.9999C45.5737 28.3242 45.8366 28.587 46.1608 28.587H47.413C47.7373 28.587 48.0001 28.3242 48.0001 27.9999C48.0001 27.6757 47.7373 27.4128 47.413 27.4128Z" fill="#FFEA00" />
      <path d="M27.9999 45.5737C27.6757 45.5737 27.4128 45.8366 27.4128 46.1608V47.413C27.4128 47.7373 27.6757 48.0001 27.9999 48.0001C28.3242 48.0001 28.587 47.7373 28.587 47.413V46.1608C28.587 45.8366 28.3242 45.5737 27.9999 45.5737Z" fill="#FFEA00" />
      <path d="M27.9999 10.4264C28.3242 10.4264 28.587 10.1635 28.587 9.8393V8.58708C28.587 8.26286 28.3242 8 27.9999 8C27.6757 8 27.4128 8.26286 27.4128 8.58708V9.8393C27.4128 10.1635 27.6757 10.4264 27.9999 10.4264Z" fill="#FFEA00" />
    </g>
    <path d="M9.83937 27.4128H8.58708C8.26286 27.4128 8 27.6757 8 27.9999C8 28.3242 8.26286 28.587 8.58708 28.587H9.83937C10.1636 28.587 10.4265 28.3242 10.4265 27.9999C10.4265 27.6757 10.1636 27.4128 9.83937 27.4128Z" fill="#FFEA00" />
    <path d="M43.6555 27.413H32.3037C32.2798 27.2369 32.2461 27.0639 32.2016 26.8952L40.9529 23.2703C41.2525 23.1462 41.3948 22.8027 41.2707 22.5032C41.1466 22.2037 40.8031 22.0615 40.5036 22.1855L31.7504 25.8112C31.6614 25.6591 31.5637 25.5127 31.4573 25.3731L42.1422 14.6882C42.3715 14.4589 42.3715 14.0872 42.1422 13.858C41.913 13.6287 41.5412 13.6287 41.312 13.858L30.6271 24.5429C30.4875 24.4366 30.3411 24.3389 30.189 24.2498L33.8147 15.4966C33.9388 15.197 33.7966 14.8536 33.497 14.7295C33.1973 14.6055 32.854 14.7476 32.7299 15.0473L29.105 23.7986C28.9363 23.7541 28.7633 23.7204 28.5872 23.6965V12.3447C28.5872 12.0204 28.3244 11.7576 28.0002 11.7576C27.6759 11.7576 27.4131 12.0204 27.4131 12.3447V23.6964C27.2369 23.7203 27.064 23.754 26.8953 23.7985L23.2703 15.0472C23.1462 14.7476 22.8027 14.6054 22.5032 14.7295C22.2037 14.8535 22.0614 15.197 22.1855 15.4965L25.8112 24.2497C25.6591 24.3388 25.5127 24.4365 25.3731 24.5429L14.6882 13.8579C14.4589 13.6286 14.0872 13.6286 13.858 13.8579C13.6287 14.0872 13.6287 14.4589 13.858 14.6881L24.5429 25.3731C24.4366 25.5126 24.3389 25.659 24.2498 25.8111L15.4966 22.1855C15.1971 22.0615 14.8536 22.2037 14.7295 22.5032C14.6055 22.8028 14.7477 23.1462 15.0473 23.2703L23.7985 26.8952C23.7541 27.0639 23.7204 27.2369 23.6964 27.413H12.3447C12.0204 27.413 11.7576 27.6758 11.7576 28.0001C11.7576 28.3243 12.0204 28.5872 12.3447 28.5872H23.6964C23.7202 28.7632 23.754 28.9362 23.7984 29.105L15.0472 32.7299C14.7476 32.8539 14.6054 33.1974 14.7295 33.4969C14.8231 33.723 15.0417 33.8595 15.2721 33.8595C15.347 33.8595 15.4231 33.8451 15.4965 33.8146L24.2497 30.1889C24.3388 30.341 24.4365 30.4874 24.5429 30.6269L13.8579 41.3119C13.6286 41.5411 13.6286 41.9129 13.8579 42.1421C13.9725 42.2567 14.1228 42.314 14.273 42.314C14.4232 42.314 14.5735 42.2567 14.6881 42.1421L25.3731 31.4571C25.5126 31.5635 25.659 31.6612 25.8111 31.7503L22.1854 40.5035C22.0614 40.803 22.2036 41.1465 22.5032 41.2705C22.5767 41.301 22.6528 41.3154 22.7276 41.3154C22.958 41.3154 23.1766 41.1789 23.2702 40.9528L26.8951 32.2015C27.0639 32.2459 27.2368 32.2796 27.4129 32.3036V43.6553C27.4129 43.9796 27.6758 44.2424 28 44.2424C28.3242 44.2424 28.5871 43.9796 28.5871 43.6553V32.3037C28.7632 32.2798 28.9361 32.2461 29.1049 32.2016L32.7298 40.9529C32.8234 41.179 33.042 41.3155 33.2724 41.3155C33.3473 41.3155 33.4234 41.3011 33.4968 41.2707C33.7964 41.1466 33.9386 40.8031 33.8146 40.5036L30.1889 31.7504C30.341 31.6614 30.4874 31.5637 30.6269 31.4573L41.3119 42.1422C41.4265 42.2568 41.5767 42.3142 41.727 42.3142C41.8772 42.3142 42.0275 42.2569 42.1421 42.1422C42.3713 41.913 42.3713 41.5412 42.1421 41.312L31.4571 30.6271C31.5634 30.4875 31.6611 30.3411 31.7503 30.189L40.5035 33.8148C40.5769 33.8452 40.6531 33.8596 40.7279 33.8596C40.9583 33.8596 41.1769 33.7231 41.2705 33.4971C41.3946 33.1975 41.2524 32.8541 40.9528 32.73L32.2015 29.1051C32.2459 28.9364 32.2796 28.7634 32.3036 28.5873H43.6553C43.9796 28.5873 44.2424 28.3245 44.2424 28.0002C44.2424 27.676 43.9797 27.413 43.6555 27.413ZM28.0001 31.1703C26.252 31.1703 24.8298 29.7482 24.8298 28.0001C24.8298 26.252 26.252 24.8298 28.0001 24.8298C29.7482 24.8298 31.1703 26.252 31.1703 28.0001C31.1703 29.7482 29.7482 31.1703 28.0001 31.1703Z" fill="#FFEA00" />
    <path d="M47.413 27.4128H46.1608C45.8366 27.4128 45.5737 27.6757 45.5737 27.9999C45.5737 28.3242 45.8366 28.587 46.1608 28.587H47.413C47.7373 28.587 48.0001 28.3242 48.0001 27.9999C48.0001 27.6757 47.7373 27.4128 47.413 27.4128Z" fill="#FFEA00" />
    <path d="M27.9999 45.5737C27.6757 45.5737 27.4128 45.8366 27.4128 46.1608V47.413C27.4128 47.7373 27.6757 48.0001 27.9999 48.0001C28.3242 48.0001 28.587 47.7373 28.587 47.413V46.1608C28.587 45.8366 28.3242 45.5737 27.9999 45.5737Z" fill="#FFEA00" />
    <path d="M27.9999 10.4264C28.3242 10.4264 28.587 10.1635 28.587 9.8393V8.58708C28.587 8.26286 28.3242 8 27.9999 8C27.6757 8 27.4128 8.26286 27.4128 8.58708V9.8393C27.4128 10.1635 27.6757 10.4264 27.9999 10.4264Z" fill="#FFEA00" />
    <defs>
      <filter id="filter0_f_38_296" x="0" y="0" width="56" height="56" filterUnits="userSpaceOnUse" color-interpolation-filters="sRGB">
        <feFlood flood-opacity="0" result="BackgroundImageFix" />
        <feBlend mode="normal" in="SourceGraphic" in2="BackgroundImageFix" result="shape" />
        <feGaussianBlur stdDeviation="4" result="effect1_foregroundBlur_38_296" />
      </filter>
    </defs>
  </symbol>
</svg>