<svg xmlns="http://www.w3.org/2000/svg">
    <symbol id="visa" viewBox="0 0 65 49" fill="none">
        <g filter="url(#filter0_dd_16603_514)">
            <rect x="9.18835" y="4.70605" width="46.6143" height="30.0304" rx="5.37857" fill="white" />
            <rect x="9.0763" y="4.594" width="46.8384" height="30.2545" rx="5.49062" stroke="#D6DCE5" stroke-width="0.224107" />
            <path d="M32.2105 14.827L30.0362 24.9906H27.4071L29.5817 14.827H32.2105ZM43.2722 21.3897L44.6563 17.5729L45.4528 21.3897H43.2722ZM46.2056 24.9906H48.6375L46.5153 14.827H44.2707C43.7663 14.827 43.3407 15.1204 43.1512 15.5727L39.2067 24.9906H41.9677L42.5159 23.4729H45.889L46.2056 24.9906ZM39.3438 21.6721C39.355 18.9896 35.6341 18.842 35.6599 17.6437C35.6676 17.2786 36.0153 16.8913 36.7748 16.7919C37.1522 16.7427 38.1896 16.705 39.3676 17.2471L39.8289 15.0918C39.1961 14.8621 38.3819 14.6411 37.3693 14.6411C34.7707 14.6411 32.9417 16.0227 32.9262 18.0011C32.9098 19.4641 34.2319 20.2805 35.2282 20.7669C36.2524 21.2652 36.5966 21.5843 36.5921 22.0298C36.5854 22.7121 35.775 23.0126 35.0191 23.0245C33.697 23.0454 32.9298 22.6677 32.3182 22.3827L31.8418 24.6097C32.4559 24.8918 33.5898 25.137 34.7662 25.1495C37.5279 25.1495 39.3348 23.7849 39.3438 21.6721ZM28.4536 14.827L24.1938 24.9906H21.4142L19.3181 16.8794C19.1907 16.3798 19.0801 16.1971 18.6931 15.9864C18.0616 15.6438 17.0178 15.3218 16.0994 15.1223L16.1621 14.827H20.6357C21.2057 14.827 21.7188 15.2066 21.8481 15.8632L22.9554 21.7448L25.6913 14.827H28.4536Z" fill="#1434CB" />
        </g>
        <defs>
            <filter id="filter0_dd_16603_514" x="-5.24521e-05" y="-0.000209332" width="64.9911" height="48.4071" filterUnits="userSpaceOnUse" color-interpolation-filters="sRGB">
                <feFlood flood-opacity="0" result="BackgroundImageFix" />
                <feColorMatrix in="SourceAlpha" type="matrix" values="0 0 0 0 0 0 0 0 0 0 0 0 0 0 0 0 0 0 127 0" result="hardAlpha" />
                <feOffset dy="0.448214" />
                <feGaussianBlur stdDeviation="2.24107" />
                <feColorMatrix type="matrix" values="0 0 0 0 0.717647 0 0 0 0 0.717647 0 0 0 0 0.717647 0 0 0 0.08 0" />
                <feBlend mode="normal" in2="BackgroundImageFix" result="effect1_dropShadow_16603_514" />
                <feColorMatrix in="SourceAlpha" type="matrix" values="0 0 0 0 0 0 0 0 0 0 0 0 0 0 0 0 0 0 127 0" result="hardAlpha" />
                <feOffset dy="4.48214" />
                <feGaussianBlur stdDeviation="4.48214" />
                <feColorMatrix type="matrix" values="0 0 0 0 0.717647 0 0 0 0 0.717647 0 0 0 0 0.717647 0 0 0 0.08 0" />
                <feBlend mode="normal" in2="effect1_dropShadow_16603_514" result="effect2_dropShadow_16603_514" />
                <feBlend mode="normal" in="SourceGraphic" in2="effect2_dropShadow_16603_514" result="shape" />
            </filter>
        </defs>
    </symbol>
    <symbol id="master-cart" viewBox="0 0 65 49" fill="none">
        <g filter="url(#filter0_dd_16603_516)">
            <rect x="9.18835" y="4.70605" width="46.6143" height="30.0304" rx="5.37857" fill="white" />
            <rect x="9.0763" y="4.594" width="46.8384" height="30.2545" rx="5.49062" stroke="#D6DCE5" stroke-width="0.224107" />
            <path d="M35.844 13.5544H28.9807V25.888H35.844V13.5544Z" fill="#FF5F00" />
            <path d="M29.4165 19.7212C29.4155 18.5334 29.6846 17.3609 30.2037 16.2925C30.7227 15.2241 31.478 14.2878 32.4124 13.5544C31.2553 12.6449 29.8656 12.0793 28.4022 11.9222C26.9389 11.7652 25.4608 12.023 24.1371 12.6662C22.8133 13.3095 21.6972 14.3122 20.9164 15.5598C20.1355 16.8073 19.7214 18.2494 19.7214 19.7212C19.7214 21.193 20.1355 22.6351 20.9164 23.8826C21.6972 25.1302 22.8133 26.1329 24.1371 26.7761C25.4608 27.4194 26.9389 27.6772 28.4022 27.5201C29.8656 27.3631 31.2553 26.7975 32.4124 25.8879C31.478 25.1546 30.7227 24.2183 30.2037 23.1499C29.6846 22.0815 29.4155 20.909 29.4165 19.7212Z" fill="#EB001B" />
            <path d="M45.103 19.7212C45.103 21.1929 44.689 22.635 43.9082 23.8826C43.1274 25.1302 42.0113 26.1329 40.6876 26.7761C39.3638 27.4194 37.8858 27.6772 36.4225 27.5201C34.9591 27.3631 33.5695 26.7975 32.4124 25.8879C33.346 25.1539 34.1007 24.2174 34.6196 23.1492C35.1386 22.0809 35.4082 20.9088 35.4082 19.7212C35.4082 18.5336 35.1386 17.3615 34.6196 16.2932C34.1007 15.225 33.346 14.2885 32.4124 13.5544C33.5695 12.6449 34.9591 12.0793 36.4225 11.9222C37.8858 11.7652 39.3638 12.023 40.6876 12.6663C42.0113 13.3095 43.1274 14.3122 43.9082 15.5598C44.689 16.8074 45.103 18.2494 45.103 19.7212Z" fill="#F79E1B" />
            <path d="M44.3546 24.5816V24.3291H44.4564V24.2777H44.1971V24.3291H44.299V24.5816H44.3546ZM44.8581 24.5816V24.2772H44.7786L44.6872 24.4866L44.5957 24.2772H44.5162V24.5816H44.5723V24.352L44.658 24.55H44.7162L44.802 24.3515V24.5816H44.8581Z" fill="#F79E1B" />
        </g>
        <defs>
            <filter id="filter0_dd_16603_516" x="-5.24521e-05" y="-0.000209332" width="64.9911" height="48.4071" filterUnits="userSpaceOnUse" color-interpolation-filters="sRGB">
                <feFlood flood-opacity="0" result="BackgroundImageFix" />
                <feColorMatrix in="SourceAlpha" type="matrix" values="0 0 0 0 0 0 0 0 0 0 0 0 0 0 0 0 0 0 127 0" result="hardAlpha" />
                <feOffset dy="0.448214" />
                <feGaussianBlur stdDeviation="2.24107" />
                <feColorMatrix type="matrix" values="0 0 0 0 0.717647 0 0 0 0 0.717647 0 0 0 0 0.717647 0 0 0 0.08 0" />
                <feBlend mode="normal" in2="BackgroundImageFix" result="effect1_dropShadow_16603_516" />
                <feColorMatrix in="SourceAlpha" type="matrix" values="0 0 0 0 0 0 0 0 0 0 0 0 0 0 0 0 0 0 127 0" result="hardAlpha" />
                <feOffset dy="4.48214" />
                <feGaussianBlur stdDeviation="4.48214" />
                <feColorMatrix type="matrix" values="0 0 0 0 0.717647 0 0 0 0 0.717647 0 0 0 0 0.717647 0 0 0 0.08 0" />
                <feBlend mode="normal" in2="effect1_dropShadow_16603_516" result="effect2_dropShadow_16603_516" />
                <feBlend mode="normal" in="SourceGraphic" in2="effect2_dropShadow_16603_516" result="shape" />
            </filter>
        </defs>
    </symbol>
    <symbol id="paypal" viewBox="0 0 65 49" fill="none">
        <g filter="url(#filter0_dd_16603_518)">
            <rect x="9.18835" y="4.70605" width="46.6143" height="30.0304" rx="5.37857" fill="white" />
            <rect x="9.0763" y="4.594" width="46.8384" height="30.2545" rx="5.49062" stroke="#D6DCE5" stroke-width="0.224107" />
            <path fill-rule="evenodd" clip-rule="evenodd" d="M19.3855 15.3521H16.698C16.5141 15.3521 16.3577 15.4857 16.329 15.6672L15.2421 22.5579C15.2205 22.6939 15.3258 22.8165 15.4637 22.8165H16.7468C16.9307 22.8165 17.0871 22.6828 17.1158 22.501L17.4089 20.6425C17.4372 20.4605 17.594 20.327 17.7775 20.327H18.6283C20.3986 20.327 21.4203 19.4704 21.6873 17.773C21.8075 17.0304 21.6923 16.4469 21.3445 16.0381C20.9626 15.5895 20.285 15.3521 19.3855 15.3521ZM19.6956 17.8688C19.5487 18.8331 18.8118 18.8331 18.0994 18.8331H17.6938L17.9783 17.0322C17.9952 16.9234 18.0895 16.8433 18.1996 16.8433H18.3854C18.8708 16.8433 19.3286 16.8433 19.5652 17.1198C19.7061 17.2849 19.7494 17.53 19.6956 17.8688ZM27.4191 17.8379H26.1321C26.0225 17.8379 25.9277 17.9181 25.9108 18.027L25.8539 18.3868L25.7639 18.2565C25.4853 17.8521 24.8641 17.717 24.2439 17.717C22.8217 17.717 21.6071 18.794 21.3705 20.3048C21.2475 21.0583 21.4223 21.7789 21.8498 22.2815C22.2421 22.7436 22.8033 22.9361 23.4709 22.9361C24.6167 22.9361 25.2523 22.1993 25.2523 22.1993L25.1949 22.557C25.1732 22.6937 25.2785 22.8163 25.4156 22.8163H26.5749C26.7593 22.8163 26.9148 22.6826 26.9439 22.5008L27.6395 18.0965C27.6615 17.961 27.5566 17.8379 27.4191 17.8379ZM25.6251 20.3424C25.5009 21.0776 24.9173 21.5711 24.1732 21.5711C23.7995 21.5711 23.5007 21.4513 23.309 21.2242C23.1188 20.9987 23.0464 20.6776 23.107 20.3201C23.223 19.5911 23.8164 19.0816 24.5493 19.0816C24.9146 19.0816 25.2118 19.2029 25.4074 19.432C25.6035 19.6635 25.6813 19.9864 25.6251 20.3424ZM32.98 17.8377H34.2734C34.4545 17.8377 34.5602 18.0408 34.4572 18.1894L30.1558 24.3975C30.0862 24.4981 29.9714 24.5579 29.8489 24.5579H28.5572C28.3753 24.5579 28.2691 24.3531 28.3744 24.2042L29.7137 22.3139L28.2893 18.1339C28.24 17.9886 28.3473 17.8377 28.5019 17.8377H29.7727C29.9378 17.8377 30.0835 17.9461 30.1311 18.1041L30.8871 20.6287L32.6709 18.0015C32.7407 17.899 32.8567 17.8377 32.98 17.8377Z" fill="#253B80" />
            <path fill-rule="evenodd" clip-rule="evenodd" d="M47.0026 22.5573L48.1055 15.5405C48.1224 15.4316 48.2168 15.3514 48.3265 15.3511H49.5682C49.7053 15.3511 49.8106 15.474 49.7889 15.61L48.7013 22.5004C48.6729 22.6822 48.5165 22.8159 48.3323 22.8159H47.2234C47.0862 22.8159 46.9809 22.6933 47.0026 22.5573ZM38.5556 15.3514H35.8677C35.6842 15.3514 35.5278 15.4851 35.499 15.6666L34.4121 22.5573C34.3905 22.6933 34.4958 22.8159 34.6331 22.8159H36.0122C36.1404 22.8159 36.2501 22.7224 36.2701 22.5951L36.5785 20.6419C36.6069 20.4598 36.7637 20.3264 36.9471 20.3264H37.7975C39.5682 20.3264 40.5897 19.4698 40.8568 17.7724C40.9774 17.0298 40.8616 16.4463 40.5139 16.0375C40.1321 15.5889 39.4551 15.3514 38.5556 15.3514ZM38.8657 17.8682C38.7191 18.8324 37.9823 18.8324 37.2694 18.8324H36.8642L37.1492 17.0316C37.1661 16.9228 37.2596 16.8426 37.37 16.8426H37.5558C38.0408 16.8426 38.4991 16.8426 38.7355 17.1192C38.8766 17.2843 38.9195 17.5294 38.8657 17.8682ZM46.5885 17.8373H45.3024C45.1919 17.8373 45.098 17.9175 45.0815 18.0264L45.0246 18.3862L44.9342 18.2559C44.6556 17.8515 44.0347 17.7164 43.4146 17.7164C41.9923 17.7164 40.7781 18.7934 40.5415 20.3042C40.4189 21.0577 40.593 21.7783 41.0205 22.2809C41.4135 22.7429 41.974 22.9355 42.6415 22.9355C43.7874 22.9355 44.4228 22.1987 44.4228 22.1987L44.3655 22.5564C44.3439 22.6931 44.4492 22.8157 44.5872 22.8157H45.746C45.9295 22.8157 46.0859 22.682 46.1146 22.5002L46.8105 18.0958C46.8318 17.9604 46.7265 17.8373 46.5885 17.8373ZM44.7947 20.3418C44.6712 21.077 44.0869 21.5705 43.3426 21.5705C42.9696 21.5705 42.6703 21.4507 42.4784 21.2235C42.2882 20.9981 42.2167 20.677 42.2766 20.3195C42.3931 19.5905 42.9858 19.081 43.7187 19.081C44.0842 19.081 44.3812 19.2023 44.577 19.4314C44.7738 19.6629 44.8516 19.9858 44.7947 20.3418Z" fill="#179BD7" />
        </g>
        <defs>
            <filter id="filter0_dd_16603_518" x="-5.24521e-05" y="-0.000209332" width="64.9911" height="48.4071" filterUnits="userSpaceOnUse" color-interpolation-filters="sRGB">
                <feFlood flood-opacity="0" result="BackgroundImageFix" />
                <feColorMatrix in="SourceAlpha" type="matrix" values="0 0 0 0 0 0 0 0 0 0 0 0 0 0 0 0 0 0 127 0" result="hardAlpha" />
                <feOffset dy="0.448214" />
                <feGaussianBlur stdDeviation="2.24107" />
                <feColorMatrix type="matrix" values="0 0 0 0 0.717647 0 0 0 0 0.717647 0 0 0 0 0.717647 0 0 0 0.08 0" />
                <feBlend mode="normal" in2="BackgroundImageFix" result="effect1_dropShadow_16603_518" />
                <feColorMatrix in="SourceAlpha" type="matrix" values="0 0 0 0 0 0 0 0 0 0 0 0 0 0 0 0 0 0 127 0" result="hardAlpha" />
                <feOffset dy="4.48214" />
                <feGaussianBlur stdDeviation="4.48214" />
                <feColorMatrix type="matrix" values="0 0 0 0 0.717647 0 0 0 0 0.717647 0 0 0 0 0.717647 0 0 0 0.08 0" />
                <feBlend mode="normal" in2="effect1_dropShadow_16603_518" result="effect2_dropShadow_16603_518" />
                <feBlend mode="normal" in="SourceGraphic" in2="effect2_dropShadow_16603_518" result="shape" />
            </filter>
        </defs>
    </symbol>
    <symbol id="apple-pay" viewBox="0 0 65 49" fill="none">
        <g filter="url(#filter0_dd_16603_520)">
            <rect x="9.18835" y="4.70605" width="46.6143" height="30.0304" rx="5.37857" fill="white" />
            <rect x="9.0763" y="4.594" width="46.8384" height="30.2545" rx="5.49062" stroke="#D6DCE5" stroke-width="0.224107" />
            <path d="M24.2654 15.7878C24.5764 15.3988 24.7874 14.8765 24.7317 14.3428C24.2765 14.3654 23.7209 14.6431 23.3993 15.0324C23.1105 15.3658 22.8549 15.9099 22.9215 16.4213C23.4326 16.4656 23.9432 16.1658 24.2654 15.7878Z" fill="#000008" />
            <path d="M24.7259 16.5211C23.9838 16.4769 23.3528 16.9423 22.9984 16.9423C22.6438 16.9423 22.101 16.5434 21.514 16.5542C20.75 16.5654 20.0411 16.9974 19.6534 17.6844C18.8559 19.0589 19.4429 21.0977 20.2184 22.2171C20.595 22.7709 21.0488 23.3807 21.6469 23.3588C22.2119 23.3366 22.4334 22.9929 23.1202 22.9929C23.8065 22.9929 24.006 23.3588 24.6041 23.3477C25.2244 23.3366 25.6122 22.7936 25.9887 22.2392C26.4208 21.6079 26.5976 20.9983 26.6087 20.9649C26.5976 20.9538 25.4127 20.4992 25.4017 19.1362C25.3905 17.9949 26.332 17.4521 26.3763 17.4184C25.8446 16.6321 25.0139 16.5434 24.7259 16.5211Z" fill="#000008" />
            <path d="M31.188 14.9766C32.8011 14.9766 33.9243 16.0885 33.9243 17.7073C33.9243 19.3319 32.7779 20.4496 31.1476 20.4496H29.3616V23.2898H28.0712V14.9766L31.188 14.9766ZM29.3616 19.3665H30.8422C31.9656 19.3665 32.605 18.7616 32.605 17.7131C32.605 16.6646 31.9656 16.0655 30.848 16.0655H29.3616V19.3665Z" fill="#000008" />
            <path d="M34.2614 21.5673C34.2614 20.5071 35.0737 19.8562 36.5141 19.7755L38.1731 19.6776V19.211C38.1731 18.5369 37.718 18.1337 36.9577 18.1337C36.2374 18.1337 35.788 18.4793 35.6787 19.0209H34.5034C34.5726 17.9262 35.5058 17.1197 37.0037 17.1197C38.4727 17.1197 39.4117 17.8974 39.4117 19.113V23.2898H38.2192V22.2931H38.1905C37.8391 22.9672 37.0728 23.3934 36.2778 23.3934C35.091 23.3934 34.2614 22.656 34.2614 21.5673ZM38.1731 21.02V20.5418L36.681 20.6339C35.9378 20.6858 35.5173 21.0142 35.5173 21.5327C35.5173 22.0626 35.9551 22.4083 36.6234 22.4083C37.4933 22.4083 38.1731 21.8092 38.1731 21.02Z" fill="#000008" />
            <path d="M40.5376 25.5193V24.5111C40.6296 24.5341 40.837 24.5341 40.9408 24.5341C41.5168 24.5341 41.828 24.2922 42.018 23.67C42.018 23.6585 42.1276 23.3013 42.1276 23.2955L39.9384 17.2291H41.2864L42.819 22.1606H42.8418L44.3745 17.2291H45.6879L43.4179 23.6066C42.8996 25.0757 42.3005 25.5481 41.0446 25.5481C40.9408 25.5481 40.6296 25.5366 40.5376 25.5193Z" fill="#000008" />
        </g>
        <defs>
            <filter id="filter0_dd_16603_520" x="-5.24521e-05" y="-0.000209332" width="64.9911" height="48.4071" filterUnits="userSpaceOnUse" color-interpolation-filters="sRGB">
                <feFlood flood-opacity="0" result="BackgroundImageFix" />
                <feColorMatrix in="SourceAlpha" type="matrix" values="0 0 0 0 0 0 0 0 0 0 0 0 0 0 0 0 0 0 127 0" result="hardAlpha" />
                <feOffset dy="0.448214" />
                <feGaussianBlur stdDeviation="2.24107" />
                <feColorMatrix type="matrix" values="0 0 0 0 0.717647 0 0 0 0 0.717647 0 0 0 0 0.717647 0 0 0 0.08 0" />
                <feBlend mode="normal" in2="BackgroundImageFix" result="effect1_dropShadow_16603_520" />
                <feColorMatrix in="SourceAlpha" type="matrix" values="0 0 0 0 0 0 0 0 0 0 0 0 0 0 0 0 0 0 127 0" result="hardAlpha" />
                <feOffset dy="4.48214" />
                <feGaussianBlur stdDeviation="4.48214" />
                <feColorMatrix type="matrix" values="0 0 0 0 0.717647 0 0 0 0 0.717647 0 0 0 0 0.717647 0 0 0 0.08 0" />
                <feBlend mode="normal" in2="effect1_dropShadow_16603_520" result="effect2_dropShadow_16603_520" />
                <feBlend mode="normal" in="SourceGraphic" in2="effect2_dropShadow_16603_520" result="shape" />
            </filter>
        </defs>
    </symbol>
    <symbol id="google-pay" viewBox="0 0 65 49" fill="none">
        <g filter="url(#filter0_dd_16603_522)">
            <rect x="9.18842" y="4.70605" width="46.6143" height="30.0304" rx="5.37857" fill="white" />
            <rect x="9.07636" y="4.594" width="46.8384" height="30.2545" rx="5.49062" stroke="#D6DCE5" stroke-width="0.224107" />
            <path d="M31.4823 23.3204H30.4338V15.1621H33.2133C33.9177 15.1621 34.5184 15.3969 35.0099 15.8665C35.5122 16.3362 35.7634 16.9095 35.7634 17.5866C35.7634 18.2802 35.5122 18.8535 35.0099 19.3177C34.5239 19.7818 33.9232 20.0112 33.2133 20.0112H31.4823V23.3204ZM31.4823 16.1669V19.0119H33.2352C33.6502 19.0119 33.9996 18.8699 34.2727 18.5914C34.5512 18.3129 34.6931 17.9744 34.6931 17.5921C34.6931 17.2153 34.5512 16.8822 34.2727 16.6037C33.9996 16.3143 33.6556 16.1723 33.2352 16.1723H31.4823V16.1669Z" fill="#3C4043" />
            <path d="M38.5046 17.5539C39.28 17.5539 39.8916 17.7614 40.3393 18.1764C40.7871 18.5914 41.011 19.1593 41.011 19.8801V23.3204H40.0117V22.5449H39.968C39.5366 23.1838 38.9578 23.5006 38.237 23.5006C37.6199 23.5006 37.1066 23.3204 36.6916 22.9545C36.2766 22.5886 36.0691 22.1354 36.0691 21.5893C36.0691 21.0105 36.2875 20.5518 36.7244 20.2132C37.1612 19.8692 37.7455 19.6999 38.4718 19.6999C39.0943 19.6999 39.6076 19.8146 40.0063 20.044V19.8037C40.0063 19.4378 39.8643 19.132 39.5749 18.8754C39.2854 18.6187 38.9469 18.4931 38.5592 18.4931C37.9749 18.4931 37.5107 18.7388 37.1722 19.2358L36.2493 18.6569C36.7572 17.9197 37.5107 17.5539 38.5046 17.5539ZM37.1503 21.6057C37.1503 21.8787 37.265 22.1081 37.4998 22.2883C37.7292 22.4685 38.0022 22.5613 38.3134 22.5613C38.7558 22.5613 39.1489 22.3975 39.4929 22.0699C39.837 21.7422 40.0117 21.36 40.0117 20.9177C39.6841 20.661 39.2308 20.53 38.6465 20.53C38.2206 20.53 37.8657 20.6337 37.5817 20.8357C37.2923 21.0487 37.1503 21.3054 37.1503 21.6057Z" fill="#3C4043" />
            <path d="M46.712 17.7341L43.2172 25.7723H42.136L43.4356 22.96L41.1312 17.7341H42.2725L43.9325 21.7423H43.9544L45.5707 17.7341H46.712Z" fill="#3C4043" />
            <path d="M27.3119 19.3504C27.3119 19.0086 27.2813 18.6815 27.2245 18.367H22.8298V20.169L25.3608 20.1695C25.2582 20.7691 24.9278 21.2803 24.4216 21.621V22.7901H25.9282C26.8079 21.9759 27.3119 20.7724 27.3119 19.3504Z" fill="#4285F4" />
            <path d="M24.4221 21.6211C24.0027 21.9039 23.4627 22.0694 22.8309 22.0694C21.6104 22.0694 20.5751 21.247 20.2043 20.1385H18.6502V21.3442C19.4202 22.8721 21.0027 23.9205 22.8309 23.9205C24.0945 23.9205 25.156 23.505 25.9287 22.7896L24.4221 21.6211Z" fill="#34A853" />
            <path d="M20.0579 19.244C20.0579 18.9327 20.1098 18.6318 20.2043 18.3489V17.1432H18.6502C18.3318 17.775 18.1527 18.4882 18.1527 19.244C18.1527 19.9997 18.3324 20.7129 18.6502 21.3447L20.2043 20.139C20.1098 19.8561 20.0579 19.5552 20.0579 19.244Z" fill="#FABB05" />
            <path d="M22.8309 16.4181C23.5206 16.4181 24.1382 16.6556 24.6258 17.1198L25.9609 15.7857C25.15 15.0305 24.0928 14.5669 22.8309 14.5669C21.0032 14.5669 19.4201 15.6153 18.6502 17.1432L20.2043 18.3489C20.5751 17.2404 21.6104 16.4181 22.8309 16.4181Z" fill="#E94235" />
        </g>
        <defs>
            <filter id="filter0_dd_16603_522" x="8.58307e-06" y="-0.000209332" width="64.9911" height="48.4071" filterUnits="userSpaceOnUse" color-interpolation-filters="sRGB">
                <feFlood flood-opacity="0" result="BackgroundImageFix" />
                <feColorMatrix in="SourceAlpha" type="matrix" values="0 0 0 0 0 0 0 0 0 0 0 0 0 0 0 0 0 0 127 0" result="hardAlpha" />
                <feOffset dy="0.448214" />
                <feGaussianBlur stdDeviation="2.24107" />
                <feColorMatrix type="matrix" values="0 0 0 0 0.717647 0 0 0 0 0.717647 0 0 0 0 0.717647 0 0 0 0.08 0" />
                <feBlend mode="normal" in2="BackgroundImageFix" result="effect1_dropShadow_16603_522" />
                <feColorMatrix in="SourceAlpha" type="matrix" values="0 0 0 0 0 0 0 0 0 0 0 0 0 0 0 0 0 0 127 0" result="hardAlpha" />
                <feOffset dy="4.48214" />
                <feGaussianBlur stdDeviation="4.48214" />
                <feColorMatrix type="matrix" values="0 0 0 0 0.717647 0 0 0 0 0.717647 0 0 0 0 0.717647 0 0 0 0.08 0" />
                <feBlend mode="normal" in2="effect1_dropShadow_16603_522" result="effect2_dropShadow_16603_522" />
                <feBlend mode="normal" in="SourceGraphic" in2="effect2_dropShadow_16603_522" result="shape" />
            </filter>
        </defs>
    </symbol>
</svg>